{
	"asset":{
		"generator":"Khronos glTF Blender I/O v5.0.21",
		"version":"2.0"
	},
	"scene":0,
	"scenes":[
		{
			"name":"Scene",
			"nodes":[
				0
			]
		}
	],
	"nodes":[
		{
			"mesh":0,
			"name":"button_base",
			"rotation":[
				1,
				0,
				0,
				7.549789415861596e-08
			],
			"scale":[
				0.009999999776482582,
				0.009999999776482582,
				0.009999999776482582
			]
		}
	],
	"materials":[
		{
			"doubleSided":true,
			"name":"Material #36",
			"pbrMetallicRoughness":{
				"baseColorFactor":[
					0.800000011920929,
					0.800000011920929,
					0.800000011920929,
					1
				]
			}
		}
	],
	"meshes":[
		{
			"name":"button_base",
			"primitives":[
				{
					"attributes":{
						"POSITION":0,
						"NORMAL":1,
						"TEXCOORD_0":2
					},
					"indices":3,
					"material":0
				}
			]
		}
	],
	"accessors":[
		{
			"bufferView":0,
			"componentType":5126,
			"count":974,
			"max":[
				2.1097331047058105,
				0.45850053429603577,
				2.096754312515259
			],
			"min":[
				-2.073925495147705,
				-0.36416831612586975,
				-2.086904287338257
			],
			"type":"VEC3"
		},
		{
			"bufferView":1,
			"componentType":5126,
			"count":974,
			"type":"VEC3"
		},
		{
			"bufferView":2,
			"componentType":5126,
			"count":974,
			"type":"VEC2"
		},
		{
			"bufferView":3,
			"componentType":5123,
			"count":2376,
			"type":"SCALAR"
		}
	],
	"bufferViews":[
		{
			"buffer":0,
			"byteLength":11688,
			"byteOffset":0,
			"target":34962
		},
		{
			"buffer":0,
			"byteLength":11688,
			"byteOffset":11688,
			"target":34962
		},
		{
			"buffer":0,
			"byteLength":7792,
			"byteOffset":23376,
			"target":34962
		},
		{
			"buffer":0,
			"byteLength":4752,
			"byteOffset":31168,
			"target":34963
		}
	],
	"buffers":[
		{
			"byteLength":35920,
			"uri":"button_01_base.bin"
		}
	]
}
