{
	"asset":{
		"generator":"Khronos glTF Blender I/O v5.0.21",
		"version":"2.0"
	},
	"scene":0,
	"scenes":[
		{
			"name":"Scene",
			"nodes":[
				0
			]
		}
	],
	"nodes":[
		{
			"mesh":0,
			"name":"button_01",
			"rotation":[
				1,
				0,
				0,
				7.549790836947068e-08
			],
			"scale":[
				0.009999999776482582,
				0.009999999776482582,
				0.009999999776482582
			],
			"translation":[
				3.05481516988948e-05,
				0.007393541745841503,
				-0.00010344381735194474
			]
		}
	],
	"materials":[
		{
			"doubleSided":true,
			"name":"Material #36",
			"pbrMetallicRoughness":{
				"baseColorFactor":[
					0.800000011920929,
					0.800000011920929,
					0.800000011920929,
					1
				]
			}
		}
	],
	"meshes":[
		{
			"name":"button_01",
			"primitives":[
				{
					"attributes":{
						"POSITION":0,
						"NORMAL":1,
						"TEXCOORD_0":2
					},
					"indices":3,
					"material":0
				}
			]
		}
	],
	"accessors":[
		{
			"bufferView":0,
			"componentType":5126,
			"count":785,
			"max":[
				1.6673802137374878,
				0.9675816893577576,
				1.6471190452575684
			],
			"min":[
				-1.63770592212677,
				-0.5455361008644104,
				-1.6579670906066895
			],
			"type":"VEC3"
		},
		{
			"bufferView":1,
			"componentType":5126,
			"count":785,
			"type":"VEC3"
		},
		{
			"bufferView":2,
			"componentType":5126,
			"count":785,
			"type":"VEC2"
		},
		{
			"bufferView":3,
			"componentType":5123,
			"count":3456,
			"type":"SCALAR"
		}
	],
	"bufferViews":[
		{
			"buffer":0,
			"byteLength":9420,
			"byteOffset":0,
			"target":34962
		},
		{
			"buffer":0,
			"byteLength":9420,
			"byteOffset":9420,
			"target":34962
		},
		{
			"buffer":0,
			"byteLength":6280,
			"byteOffset":18840,
			"target":34962
		},
		{
			"buffer":0,
			"byteLength":6912,
			"byteOffset":25120,
			"target":34963
		}
	],
	"buffers":[
		{
			"byteLength":32032,
			"uri":"button_01.bin"
		}
	]
}
