{
	"asset":{
		"generator":"Khronos glTF Blender I/O v5.0.21",
		"version":"2.0"
	},
	"scene":0,
	"scenes":[
		{
			"name":"Scene",
			"nodes":[
				0
			]
		}
	],
	"nodes":[
		{
			"mesh":0,
			"name":"light_knob_01",
			"translation":[
				0,
				-0.00034167279954999685,
				0
			]
		}
	],
	"meshes":[
		{
			"name":"light_knob_01",
			"primitives":[
				{
					"attributes":{
						"POSITION":0,
						"NORMAL":1,
						"TEXCOORD_0":2
					},
					"indices":3
				},
				{
					"attributes":{
						"POSITION":4,
						"NORMAL":5,
						"TEXCOORD_0":6
					},
					"indices":7
				}
			]
		}
	],
	"accessors":[
		{
			"bufferView":0,
			"componentType":5126,
			"count":383,
			"max":[
				0.025594236329197884,
				0.012224038131535053,
				0.004176033660769463
			],
			"min":[
				-0.025570344179868698,
				-0.011457814835011959,
				0.00017257974832318723
			],
			"type":"VEC3"
		},
		{
			"bufferView":1,
			"componentType":5126,
			"count":383,
			"type":"VEC3"
		},
		{
			"bufferView":2,
			"componentType":5126,
			"count":383,
			"type":"VEC2"
		},
		{
			"bufferView":3,
			"componentType":5123,
			"count":1392,
			"type":"SCALAR"
		},
		{
			"bufferView":4,
			"componentType":5126,
			"count":244,
			"max":[
				0.02184126526117325,
				0.008494989946484566,
				0.007461071480065584
			],
			"min":[
				-0.021817371249198914,
				-0.007736492436379194,
				0.0018668993143364787
			],
			"type":"VEC3"
		},
		{
			"bufferView":5,
			"componentType":5126,
			"count":244,
			"type":"VEC3"
		},
		{
			"bufferView":6,
			"componentType":5126,
			"count":244,
			"type":"VEC2"
		},
		{
			"bufferView":7,
			"componentType":5123,
			"count":1020,
			"type":"SCALAR"
		}
	],
	"bufferViews":[
		{
			"buffer":0,
			"byteLength":4596,
			"byteOffset":0,
			"target":34962
		},
		{
			"buffer":0,
			"byteLength":4596,
			"byteOffset":4596,
			"target":34962
		},
		{
			"buffer":0,
			"byteLength":3064,
			"byteOffset":9192,
			"target":34962
		},
		{
			"buffer":0,
			"byteLength":2784,
			"byteOffset":12256,
			"target":34963
		},
		{
			"buffer":0,
			"byteLength":2928,
			"byteOffset":15040,
			"target":34962
		},
		{
			"buffer":0,
			"byteLength":2928,
			"byteOffset":17968,
			"target":34962
		},
		{
			"buffer":0,
			"byteLength":1952,
			"byteOffset":20896,
			"target":34962
		},
		{
			"buffer":0,
			"byteLength":2040,
			"byteOffset":22848,
			"target":34963
		}
	],
	"buffers":[
		{
			"byteLength":24888,
			"uri":"light_knob_01.bin"
		}
	]
}
