{
	"asset":{
		"generator":"Khronos glTF Blender I/O v5.0.21",
		"version":"2.0"
	},
	"scene":0,
	"scenes":[
		{
			"name":"Scene",
			"nodes":[
				0
			]
		}
	],
	"nodes":[
		{
			"mesh":0,
			"name":"light_knob_02",
			"translation":[
				0.3091506063938141,
				1.6541228294372559,
				0.46913155913352966
			]
		}
	],
	"meshes":[
		{
			"name":"light_knob_02",
			"primitives":[
				{
					"attributes":{
						"POSITION":0,
						"NORMAL":1,
						"TEXCOORD_0":2
					},
					"indices":3
				}
			]
		}
	],
	"accessors":[
		{
			"bufferView":0,
			"componentType":5126,
			"count":891,
			"max":[
				0.0036559109576046467,
				0.0038870573043823242,
				0.0034617583733052015
			],
			"min":[
				-0.003620045492425561,
				-0.003536196192726493,
				-0.004909656010568142
			],
			"type":"VEC3"
		},
		{
			"bufferView":1,
			"componentType":5126,
			"count":891,
			"type":"VEC3"
		},
		{
			"bufferView":2,
			"componentType":5126,
			"count":891,
			"type":"VEC2"
		},
		{
			"bufferView":3,
			"componentType":5123,
			"count":1506,
			"type":"SCALAR"
		}
	],
	"bufferViews":[
		{
			"buffer":0,
			"byteLength":10692,
			"byteOffset":0,
			"target":34962
		},
		{
			"buffer":0,
			"byteLength":10692,
			"byteOffset":10692,
			"target":34962
		},
		{
			"buffer":0,
			"byteLength":7128,
			"byteOffset":21384,
			"target":34962
		},
		{
			"buffer":0,
			"byteLength":3012,
			"byteOffset":28512,
			"target":34963
		}
	],
	"buffers":[
		{
			"byteLength":31524,
			"uri":"light_knob_02.bin"
		}
	]
}
