{
	"asset":{
		"generator":"Khronos glTF Blender I/O v5.0.21",
		"version":"2.0"
	},
	"scene":0,
	"scenes":[
		{
			"name":"Scene",
			"nodes":[
				0
			]
		}
	],
	"nodes":[
		{
			"mesh":0,
			"name":"thunder_02",
			"scale":[
				0.4070805013179779,
				0.4070805013179779,
				0.4070805013179779
			],
			"translation":[
				-0.62827467918396,
				0,
				0.4546985626220703
			]
		}
	],
	"meshes":[
		{
			"name":"thunder_02",
			"primitives":[
				{
					"attributes":{
						"POSITION":0,
						"NORMAL":1,
						"COLOR_0":2
					},
					"indices":3
				}
			]
		}
	],
	"accessors":[
		{
			"bufferView":0,
			"componentType":5126,
			"count":3880,
			"max":[
				8.837980270385742,
				6.384964466094971,
				11.281929969787598
			],
			"min":[
				-17.16922950744629,
				-13.414704322814941,
				-6.204768180847168
			],
			"type":"VEC3"
		},
		{
			"bufferView":1,
			"componentType":5126,
			"count":3880,
			"type":"VEC3"
		},
		{
			"bufferView":2,
			"componentType":5123,
			"count":3880,
			"normalized":true,
			"type":"VEC4"
		},
		{
			"bufferView":3,
			"componentType":5123,
			"count":23079,
			"type":"SCALAR"
		}
	],
	"bufferViews":[
		{
			"buffer":0,
			"byteLength":46560,
			"byteOffset":0,
			"target":34962
		},
		{
			"buffer":0,
			"byteLength":46560,
			"byteOffset":46560,
			"target":34962
		},
		{
			"buffer":0,
			"byteLength":31040,
			"byteOffset":93120,
			"target":34962
		},
		{
			"buffer":0,
			"byteLength":46158,
			"byteOffset":124160,
			"target":34963
		}
	],
	"buffers":[
		{
			"byteLength":170320,
			"uri":"thunder_02.bin"
		}
	]
}
