{
	"asset":{
		"generator":"Khronos glTF Blender I/O v5.0.21",
		"version":"2.0"
	},
	"scene":0,
	"scenes":[
		{
			"name":"Scene",
			"nodes":[
				0
			]
		}
	],
	"nodes":[
		{
			"mesh":0,
			"name":"thunder_03",
			"translation":[
				0.010390074923634529,
				1.4844281673431396,
				-0.26476114988327026
			]
		}
	],
	"meshes":[
		{
			"name":"thunder_03",
			"primitives":[
				{
					"attributes":{
						"POSITION":0,
						"NORMAL":1,
						"COLOR_0":2
					},
					"indices":3
				}
			]
		}
	],
	"accessors":[
		{
			"bufferView":0,
			"componentType":5126,
			"count":43994,
			"max":[
				4.7045416831970215,
				6.467700481414795,
				5.178175449371338
			],
			"min":[
				-5.5131449699401855,
				-1.4970769882202148,
				-2.9773783683776855
			],
			"type":"VEC3"
		},
		{
			"bufferView":1,
			"componentType":5126,
			"count":43994,
			"type":"VEC3"
		},
		{
			"bufferView":2,
			"componentType":5123,
			"count":43994,
			"normalized":true,
			"type":"VEC4"
		},
		{
			"bufferView":3,
			"componentType":5123,
			"count":260916,
			"type":"SCALAR"
		}
	],
	"bufferViews":[
		{
			"buffer":0,
			"byteLength":527928,
			"byteOffset":0,
			"target":34962
		},
		{
			"buffer":0,
			"byteLength":527928,
			"byteOffset":527928,
			"target":34962
		},
		{
			"buffer":0,
			"byteLength":351952,
			"byteOffset":1055856,
			"target":34962
		},
		{
			"buffer":0,
			"byteLength":521832,
			"byteOffset":1407808,
			"target":34963
		}
	],
	"buffers":[
		{
			"byteLength":1929640,
			"uri":"thunder_03.bin"
		}
	]
}
