{
	"asset":{
		"generator":"Khronos glTF Blender I/O v5.0.21",
		"version":"2.0"
	},
	"scene":0,
	"scenes":[
		{
			"name":"Scene",
			"nodes":[
				0
			]
		}
	],
	"nodes":[
		{
			"mesh":0,
			"name":"thunder_01",
			"scale":[
				0.4070805013179779,
				0.4070805013179779,
				0.4070805013179779
			],
			"translation":[
				-0.34618330001831055,
				0.7534629702568054,
				0.2930951416492462
			]
		}
	],
	"meshes":[
		{
			"name":"thunder_01",
			"primitives":[
				{
					"attributes":{
						"POSITION":0,
						"NORMAL":1,
						"COLOR_0":2
					},
					"indices":3
				}
			]
		}
	],
	"accessors":[
		{
			"bufferView":0,
			"componentType":5126,
			"count":9081,
			"max":[
				12.348881721496582,
				5.116199493408203,
				14.313200950622559
			],
			"min":[
				-17.66487693786621,
				-13.202008247375488,
				-16.806516647338867
			],
			"type":"VEC3"
		},
		{
			"bufferView":1,
			"componentType":5126,
			"count":9081,
			"type":"VEC3"
		},
		{
			"bufferView":2,
			"componentType":5123,
			"count":9081,
			"normalized":true,
			"type":"VEC4"
		},
		{
			"bufferView":3,
			"componentType":5123,
			"count":53952,
			"type":"SCALAR"
		}
	],
	"bufferViews":[
		{
			"buffer":0,
			"byteLength":108972,
			"byteOffset":0,
			"target":34962
		},
		{
			"buffer":0,
			"byteLength":108972,
			"byteOffset":108972,
			"target":34962
		},
		{
			"buffer":0,
			"byteLength":72648,
			"byteOffset":217944,
			"target":34962
		},
		{
			"buffer":0,
			"byteLength":107904,
			"byteOffset":290592,
			"target":34963
		}
	],
	"buffers":[
		{
			"byteLength":398496,
			"uri":"thunder_01.bin"
		}
	]
}
