{
	"asset":{
		"generator":"Khronos glTF Blender I/O v5.0.21",
		"version":"2.0"
	},
	"scene":0,
	"scenes":[
		{
			"name":"Scene",
			"nodes":[
				0
			]
		}
	],
	"nodes":[
		{
			"mesh":0,
			"name":"instr_flight_stick"
		}
	],
	"meshes":[
		{
			"name":"instr_flight_stick",
			"primitives":[
				{
					"attributes":{
						"POSITION":0,
						"NORMAL":1,
						"TEXCOORD_0":2
					},
					"indices":3
				},
				{
					"attributes":{
						"POSITION":4,
						"NORMAL":5,
						"TEXCOORD_0":6
					},
					"indices":7
				}
			]
		}
	],
	"accessors":[
		{
			"bufferView":0,
			"componentType":5126,
			"count":367,
			"max":[
				0.020838778465986252,
				0.5043136477470398,
				0.01720118708908558
			],
			"min":[
				-0.01757633499801159,
				-5.114543091622181e-05,
				-0.021544629707932472
			],
			"type":"VEC3"
		},
		{
			"bufferView":1,
			"componentType":5126,
			"count":367,
			"type":"VEC3"
		},
		{
			"bufferView":2,
			"componentType":5126,
			"count":367,
			"type":"VEC2"
		},
		{
			"bufferView":3,
			"componentType":5123,
			"count":1188,
			"type":"SCALAR"
		},
		{
			"bufferView":4,
			"componentType":5126,
			"count":392,
			"max":[
				0.02305694669485092,
				0.4962041974067688,
				0.018448201939463615
			],
			"min":[
				-0.019794516265392303,
				0.3834669291973114,
				-0.023997651413083076
			],
			"type":"VEC3"
		},
		{
			"bufferView":5,
			"componentType":5126,
			"count":392,
			"type":"VEC3"
		},
		{
			"bufferView":6,
			"componentType":5126,
			"count":392,
			"type":"VEC2"
		},
		{
			"bufferView":7,
			"componentType":5123,
			"count":1272,
			"type":"SCALAR"
		}
	],
	"bufferViews":[
		{
			"buffer":0,
			"byteLength":4404,
			"byteOffset":0,
			"target":34962
		},
		{
			"buffer":0,
			"byteLength":4404,
			"byteOffset":4404,
			"target":34962
		},
		{
			"buffer":0,
			"byteLength":2936,
			"byteOffset":8808,
			"target":34962
		},
		{
			"buffer":0,
			"byteLength":2376,
			"byteOffset":11744,
			"target":34963
		},
		{
			"buffer":0,
			"byteLength":4704,
			"byteOffset":14120,
			"target":34962
		},
		{
			"buffer":0,
			"byteLength":4704,
			"byteOffset":18824,
			"target":34962
		},
		{
			"buffer":0,
			"byteLength":3136,
			"byteOffset":23528,
			"target":34962
		},
		{
			"buffer":0,
			"byteLength":2544,
			"byteOffset":26664,
			"target":34963
		}
	],
	"buffers":[
		{
			"byteLength":29208,
			"uri":"instr_flight_stick.bin"
		}
	]
}
