{
	"asset":{
		"generator":"Khronos glTF Blender I/O v5.0.21",
		"version":"2.0"
	},
	"scene":0,
	"scenes":[
		{
			"name":"Scene",
			"nodes":[
				0,
				1
			]
		}
	],
	"nodes":[
		{
			"mesh":0,
			"name":"knob_01",
			"rotation":[
				0.7071068286895752,
				0,
				0,
				0.7071068286895752
			],
			"scale":[
				0.003990496043115854,
				0.003990496043115854,
				0.003990496043115854
			],
			"translation":[
				0,
				0,
				0.00468500005081296
			]
		},
		{
			"mesh":1,
			"name":"knob_base",
			"scale":[
				0.009525055065751076,
				0.006360565312206745,
				0.004712485242635012
			],
			"translation":[
				-4.676497610489605e-06,
				5.74643354411819e-06,
				0.002634589094668627
			]
		}
	],
	"meshes":[
		{
			"name":"knob_01",
			"primitives":[
				{
					"attributes":{
						"POSITION":0,
						"NORMAL":1,
						"TEXCOORD_0":2
					},
					"indices":3
				}
			]
		},
		{
			"name":"knob_base",
			"primitives":[
				{
					"attributes":{
						"POSITION":4,
						"NORMAL":5,
						"TEXCOORD_0":6
					},
					"indices":7
				}
			]
		}
	],
	"accessors":[
		{
			"bufferView":0,
			"componentType":5126,
			"count":247,
			"max":[
				0.997663140296936,
				0.015590906143188477,
				0.9976630806922913
			],
			"min":[
				-1.002336859703064,
				-6.252082824707031,
				-1.002337098121643
			],
			"type":"VEC3"
		},
		{
			"bufferView":1,
			"componentType":5126,
			"count":247,
			"type":"VEC3"
		},
		{
			"bufferView":2,
			"componentType":5126,
			"count":247,
			"type":"VEC2"
		},
		{
			"bufferView":3,
			"componentType":5123,
			"count":756,
			"type":"SCALAR"
		},
		{
			"bufferView":4,
			"componentType":5126,
			"count":274,
			"max":[
				1.0004910230636597,
				1.6924751996994019,
				1.0913971662521362
			],
			"min":[
				-0.9995090365409851,
				-1.665824055671692,
				-0.15627546608448029
			],
			"type":"VEC3"
		},
		{
			"bufferView":5,
			"componentType":5126,
			"count":274,
			"type":"VEC3"
		},
		{
			"bufferView":6,
			"componentType":5126,
			"count":274,
			"type":"VEC2"
		},
		{
			"bufferView":7,
			"componentType":5123,
			"count":588,
			"type":"SCALAR"
		}
	],
	"bufferViews":[
		{
			"buffer":0,
			"byteLength":2964,
			"byteOffset":0,
			"target":34962
		},
		{
			"buffer":0,
			"byteLength":2964,
			"byteOffset":2964,
			"target":34962
		},
		{
			"buffer":0,
			"byteLength":1976,
			"byteOffset":5928,
			"target":34962
		},
		{
			"buffer":0,
			"byteLength":1512,
			"byteOffset":7904,
			"target":34963
		},
		{
			"buffer":0,
			"byteLength":3288,
			"byteOffset":9416,
			"target":34962
		},
		{
			"buffer":0,
			"byteLength":3288,
			"byteOffset":12704,
			"target":34962
		},
		{
			"buffer":0,
			"byteLength":2192,
			"byteOffset":15992,
			"target":34962
		},
		{
			"buffer":0,
			"byteLength":1176,
			"byteOffset":18184,
			"target":34963
		}
	],
	"buffers":[
		{
			"byteLength":19360,
			"uri":"knob_01.bin"
		}
	]
}
