{
	"asset":{
		"generator":"Khronos glTF Blender I/O v5.0.21",
		"version":"2.0"
	},
	"scene":0,
	"scenes":[
		{
			"name":"Scene",
			"nodes":[
				0
			]
		}
	],
	"nodes":[
		{
			"mesh":0,
			"name":"radio_stack_02"
		}
	],
	"meshes":[
		{
			"name":"radio_stack_02",
			"primitives":[
				{
					"attributes":{
						"POSITION":0,
						"NORMAL":1,
						"TEXCOORD_0":2
					},
					"indices":3
				},
				{
					"attributes":{
						"POSITION":4,
						"NORMAL":5,
						"TEXCOORD_0":6
					},
					"indices":7
				}
			]
		}
	],
	"accessors":[
		{
			"bufferView":0,
			"componentType":5126,
			"count":614,
			"max":[
				0.02698003314435482,
				0.025627126917243004,
				0.1105617806315422
			],
			"min":[
				-0.023707035928964615,
				-0.03314138203859329,
				-0.042475998401641846
			],
			"type":"VEC3"
		},
		{
			"bufferView":1,
			"componentType":5126,
			"count":614,
			"type":"VEC3"
		},
		{
			"bufferView":2,
			"componentType":5126,
			"count":614,
			"type":"VEC2"
		},
		{
			"bufferView":3,
			"componentType":5123,
			"count":1704,
			"type":"SCALAR"
		},
		{
			"bufferView":4,
			"componentType":5126,
			"count":22,
			"max":[
				0.019859900698065758,
				0.008443884551525116,
				-0.03532500937581062
			],
			"min":[
				-0.00989186204969883,
				-0.024208970367908478,
				-0.03541063889861107
			],
			"type":"VEC3"
		},
		{
			"bufferView":5,
			"componentType":5126,
			"count":22,
			"type":"VEC3"
		},
		{
			"bufferView":6,
			"componentType":5126,
			"count":22,
			"type":"VEC2"
		},
		{
			"bufferView":7,
			"componentType":5123,
			"count":60,
			"type":"SCALAR"
		}
	],
	"bufferViews":[
		{
			"buffer":0,
			"byteLength":7368,
			"byteOffset":0,
			"target":34962
		},
		{
			"buffer":0,
			"byteLength":7368,
			"byteOffset":7368,
			"target":34962
		},
		{
			"buffer":0,
			"byteLength":4912,
			"byteOffset":14736,
			"target":34962
		},
		{
			"buffer":0,
			"byteLength":3408,
			"byteOffset":19648,
			"target":34963
		},
		{
			"buffer":0,
			"byteLength":264,
			"byteOffset":23056,
			"target":34962
		},
		{
			"buffer":0,
			"byteLength":264,
			"byteOffset":23320,
			"target":34962
		},
		{
			"buffer":0,
			"byteLength":176,
			"byteOffset":23584,
			"target":34962
		},
		{
			"buffer":0,
			"byteLength":120,
			"byteOffset":23760,
			"target":34963
		}
	],
	"buffers":[
		{
			"byteLength":23880,
			"uri":"radio_stack_02.bin"
		}
	]
}
