{
	"asset":{
		"generator":"Khronos glTF Blender I/O v5.0.21",
		"version":"2.0"
	},
	"scene":0,
	"scenes":[
		{
			"name":"Scene",
			"nodes":[
				0
			]
		}
	],
	"nodes":[
		{
			"mesh":0,
			"name":"radial_01"
		}
	],
	"meshes":[
		{
			"name":"radial_01",
			"primitives":[
				{
					"attributes":{
						"POSITION":0,
						"NORMAL":1,
						"TEXCOORD_0":2
					},
					"indices":3
				},
				{
					"attributes":{
						"POSITION":4,
						"NORMAL":5,
						"TEXCOORD_0":6
					},
					"indices":7
				}
			]
		}
	],
	"accessors":[
		{
			"bufferView":0,
			"componentType":5126,
			"count":949,
			"max":[
				0.03882883861660957,
				0.007528752088546753,
				0.0388597771525383
			],
			"min":[
				-0.03889069706201553,
				-5.592258457909338e-05,
				-0.0388597771525383
			],
			"type":"VEC3"
		},
		{
			"bufferView":1,
			"componentType":5126,
			"count":949,
			"type":"VEC3"
		},
		{
			"bufferView":2,
			"componentType":5126,
			"count":949,
			"type":"VEC2"
		},
		{
			"bufferView":3,
			"componentType":5123,
			"count":2154,
			"type":"SCALAR"
		},
		{
			"bufferView":4,
			"componentType":5126,
			"count":48,
			"max":[
				0.03349028900265694,
				0.005664351861923933,
				0.03339751064777374
			],
			"min":[
				-0.03330470994114876,
				0.005664345808327198,
				-0.03339751064777374
			],
			"type":"VEC3"
		},
		{
			"bufferView":5,
			"componentType":5126,
			"count":48,
			"type":"VEC3"
		},
		{
			"bufferView":6,
			"componentType":5126,
			"count":48,
			"type":"VEC2"
		},
		{
			"bufferView":7,
			"componentType":5123,
			"count":138,
			"type":"SCALAR"
		}
	],
	"bufferViews":[
		{
			"buffer":0,
			"byteLength":11388,
			"byteOffset":0,
			"target":34962
		},
		{
			"buffer":0,
			"byteLength":11388,
			"byteOffset":11388,
			"target":34962
		},
		{
			"buffer":0,
			"byteLength":7592,
			"byteOffset":22776,
			"target":34962
		},
		{
			"buffer":0,
			"byteLength":4308,
			"byteOffset":30368,
			"target":34963
		},
		{
			"buffer":0,
			"byteLength":576,
			"byteOffset":34676,
			"target":34962
		},
		{
			"buffer":0,
			"byteLength":576,
			"byteOffset":35252,
			"target":34962
		},
		{
			"buffer":0,
			"byteLength":384,
			"byteOffset":35828,
			"target":34962
		},
		{
			"buffer":0,
			"byteLength":276,
			"byteOffset":36212,
			"target":34963
		}
	],
	"buffers":[
		{
			"byteLength":36488,
			"uri":"radial_01.bin"
		}
	]
}
