{
	"asset":{
		"generator":"Khronos glTF Blender I/O v5.0.21",
		"version":"2.0"
	},
	"extensionsUsed":[
		"KHR_materials_specular"
	],
	"scene":0,
	"scenes":[
		{
			"name":"Scene",
			"nodes":[
				0
			]
		}
	],
	"nodes":[
		{
			"mesh":0,
			"name":"square_01"
		}
	],
	"materials":[
		{
			"doubleSided":true,
			"extensions":{
				"KHR_materials_specular":{
					"specularFactor":0
				}
			},
			"name":"Black",
			"pbrMetallicRoughness":{
				"baseColorFactor":[
					0,
					0,
					0,
					1
				],
				"metallicFactor":0,
				"roughnessFactor":0.5
			}
		},
		{
			"doubleSided":true,
			"extensions":{
				"KHR_materials_specular":{
					"specularFactor":0
				}
			},
			"name":"Material.004",
			"pbrMetallicRoughness":{
				"baseColorFactor":[
					0,
					0.04533492401242256,
					0.8000074625015259,
					1
				],
				"metallicFactor":0,
				"roughnessFactor":0.5
			}
		}
	],
	"meshes":[
		{
			"name":"square_01",
			"primitives":[
				{
					"attributes":{
						"POSITION":0,
						"NORMAL":1,
						"TEXCOORD_0":2
					},
					"indices":3,
					"material":0
				},
				{
					"attributes":{
						"POSITION":4,
						"NORMAL":5,
						"TEXCOORD_0":6
					},
					"indices":7
				},
				{
					"attributes":{
						"POSITION":8,
						"NORMAL":9,
						"TEXCOORD_0":10
					},
					"indices":11,
					"material":1
				},
				{
					"attributes":{
						"POSITION":12,
						"NORMAL":13,
						"TEXCOORD_0":14
					},
					"indices":15
				}
			]
		}
	],
	"accessors":[
		{
			"bufferView":0,
			"componentType":5126,
			"count":256,
			"max":[
				0.3593393564224243,
				0.005684050265699625,
				0.35834941267967224
			],
			"min":[
				-0.35704296827316284,
				-0.02912464737892151,
				-0.352938175201416
			],
			"type":"VEC3"
		},
		{
			"bufferView":1,
			"componentType":5126,
			"count":256,
			"type":"VEC3"
		},
		{
			"bufferView":2,
			"componentType":5126,
			"count":256,
			"type":"VEC2"
		},
		{
			"bufferView":3,
			"componentType":5123,
			"count":714,
			"type":"SCALAR"
		},
		{
			"bufferView":4,
			"componentType":5126,
			"count":64,
			"max":[
				0.2970704734325409,
				-0.010574999265372753,
				0.29780325293540955
			],
			"min":[
				-0.29550257325172424,
				-0.010574999265372753,
				-0.2947697639465332
			],
			"type":"VEC3"
		},
		{
			"bufferView":5,
			"componentType":5126,
			"count":64,
			"type":"VEC3"
		},
		{
			"bufferView":6,
			"componentType":5126,
			"count":64,
			"type":"VEC2"
		},
		{
			"bufferView":7,
			"componentType":5123,
			"count":186,
			"type":"SCALAR"
		},
		{
			"bufferView":8,
			"componentType":5126,
			"count":366,
			"max":[
				0.2777796983718872,
				0.01188011933118105,
				0.2915925681591034
			],
			"min":[
				-0.27631044387817383,
				-0.005343063268810511,
				-0.2973359525203705
			],
			"type":"VEC3"
		},
		{
			"bufferView":9,
			"componentType":5126,
			"count":366,
			"type":"VEC3"
		},
		{
			"bufferView":10,
			"componentType":5126,
			"count":366,
			"type":"VEC2"
		},
		{
			"bufferView":11,
			"componentType":5123,
			"count":1206,
			"type":"SCALAR"
		},
		{
			"bufferView":12,
			"componentType":5126,
			"count":64,
			"max":[
				0.2970704734325409,
				0.005684050265699625,
				0.29780325293540955
			],
			"min":[
				-0.29550257325172424,
				0.005684050265699625,
				-0.2947697639465332
			],
			"type":"VEC3"
		},
		{
			"bufferView":13,
			"componentType":5126,
			"count":64,
			"type":"VEC3"
		},
		{
			"bufferView":14,
			"componentType":5126,
			"count":64,
			"type":"VEC2"
		},
		{
			"bufferView":15,
			"componentType":5123,
			"count":186,
			"type":"SCALAR"
		}
	],
	"bufferViews":[
		{
			"buffer":0,
			"byteLength":3072,
			"byteOffset":0,
			"target":34962
		},
		{
			"buffer":0,
			"byteLength":3072,
			"byteOffset":3072,
			"target":34962
		},
		{
			"buffer":0,
			"byteLength":2048,
			"byteOffset":6144,
			"target":34962
		},
		{
			"buffer":0,
			"byteLength":1428,
			"byteOffset":8192,
			"target":34963
		},
		{
			"buffer":0,
			"byteLength":768,
			"byteOffset":9620,
			"target":34962
		},
		{
			"buffer":0,
			"byteLength":768,
			"byteOffset":10388,
			"target":34962
		},
		{
			"buffer":0,
			"byteLength":512,
			"byteOffset":11156,
			"target":34962
		},
		{
			"buffer":0,
			"byteLength":372,
			"byteOffset":11668,
			"target":34963
		},
		{
			"buffer":0,
			"byteLength":4392,
			"byteOffset":12040,
			"target":34962
		},
		{
			"buffer":0,
			"byteLength":4392,
			"byteOffset":16432,
			"target":34962
		},
		{
			"buffer":0,
			"byteLength":2928,
			"byteOffset":20824,
			"target":34962
		},
		{
			"buffer":0,
			"byteLength":2412,
			"byteOffset":23752,
			"target":34963
		},
		{
			"buffer":0,
			"byteLength":768,
			"byteOffset":26164,
			"target":34962
		},
		{
			"buffer":0,
			"byteLength":768,
			"byteOffset":26932,
			"target":34962
		},
		{
			"buffer":0,
			"byteLength":512,
			"byteOffset":27700,
			"target":34962
		},
		{
			"buffer":0,
			"byteLength":372,
			"byteOffset":28212,
			"target":34963
		}
	],
	"buffers":[
		{
			"byteLength":28584,
			"uri":"square_01.bin"
		}
	]
}
