{
	"asset":{
		"generator":"Khronos glTF Blender I/O v5.0.21",
		"version":"2.0"
	},
	"scene":0,
	"scenes":[
		{
			"name":"Scene",
			"nodes":[
				0,
				1
			]
		}
	],
	"nodes":[
		{
			"mesh":0,
			"name":"throttle_quadrant_lever",
			"translation":[
				0,
				0.08604951947927475,
				-0.053887978196144104
			]
		},
		{
			"mesh":1,
			"name":"throttle_quadrant_base"
		}
	],
	"meshes":[
		{
			"name":"throttle_quadrant_lever",
			"primitives":[
				{
					"attributes":{
						"POSITION":0,
						"NORMAL":1,
						"TEXCOORD_0":2
					},
					"indices":3
				}
			]
		},
		{
			"name":"throttle_quadrant_base",
			"primitives":[
				{
					"attributes":{
						"POSITION":4,
						"NORMAL":5,
						"TEXCOORD_0":6
					},
					"indices":7
				}
			]
		}
	],
	"accessors":[
		{
			"bufferView":0,
			"componentType":5126,
			"count":516,
			"max":[
				0.07588764280080795,
				0.0363694503903389,
				0.013052505441009998
			],
			"min":[
				-0.07604574412107468,
				-0.09651320427656174,
				-0.014175035059452057
			],
			"type":"VEC3"
		},
		{
			"bufferView":1,
			"componentType":5126,
			"count":516,
			"type":"VEC3"
		},
		{
			"bufferView":2,
			"componentType":5126,
			"count":516,
			"type":"VEC2"
		},
		{
			"bufferView":3,
			"componentType":5123,
			"count":3072,
			"type":"SCALAR"
		},
		{
			"bufferView":4,
			"componentType":5126,
			"count":964,
			"max":[
				0.06608652323484421,
				0.012833546847105026,
				0.06597255915403366
			],
			"min":[
				-0.06608650088310242,
				-0.01709856651723385,
				-0.06598252058029175
			],
			"type":"VEC3"
		},
		{
			"bufferView":5,
			"componentType":5126,
			"count":964,
			"type":"VEC3"
		},
		{
			"bufferView":6,
			"componentType":5126,
			"count":964,
			"type":"VEC2"
		},
		{
			"bufferView":7,
			"componentType":5123,
			"count":2292,
			"type":"SCALAR"
		}
	],
	"bufferViews":[
		{
			"buffer":0,
			"byteLength":6192,
			"byteOffset":0,
			"target":34962
		},
		{
			"buffer":0,
			"byteLength":6192,
			"byteOffset":6192,
			"target":34962
		},
		{
			"buffer":0,
			"byteLength":4128,
			"byteOffset":12384,
			"target":34962
		},
		{
			"buffer":0,
			"byteLength":6144,
			"byteOffset":16512,
			"target":34963
		},
		{
			"buffer":0,
			"byteLength":11568,
			"byteOffset":22656,
			"target":34962
		},
		{
			"buffer":0,
			"byteLength":11568,
			"byteOffset":34224,
			"target":34962
		},
		{
			"buffer":0,
			"byteLength":7712,
			"byteOffset":45792,
			"target":34962
		},
		{
			"buffer":0,
			"byteLength":4584,
			"byteOffset":53504,
			"target":34963
		}
	],
	"buffers":[
		{
			"byteLength":58088,
			"uri":"throttle_quadrant.bin"
		}
	]
}
