{
	"asset":{
		"generator":"Khronos glTF Blender I/O v5.0.21",
		"version":"2.0"
	},
	"scene":0,
	"scenes":[
		{
			"name":"Scene",
			"nodes":[
				0
			]
		}
	],
	"nodes":[
		{
			"mesh":0,
			"name":"stick_03"
		}
	],
	"meshes":[
		{
			"name":"stick_03",
			"primitives":[
				{
					"attributes":{
						"POSITION":0,
						"NORMAL":1,
						"TEXCOORD_0":2
					},
					"indices":3
				},
				{
					"attributes":{
						"POSITION":4,
						"NORMAL":5,
						"TEXCOORD_0":6
					},
					"indices":7
				},
				{
					"attributes":{
						"POSITION":8,
						"NORMAL":9,
						"TEXCOORD_0":10
					},
					"indices":11
				}
			]
		}
	],
	"accessors":[
		{
			"bufferView":0,
			"componentType":5126,
			"count":995,
			"max":[
				0.02766456827521324,
				0.510322630405426,
				0.0276650357991457
			],
			"min":[
				-0.02766592800617218,
				0.38487422466278076,
				-0.02766389213502407
			],
			"type":"VEC3"
		},
		{
			"bufferView":1,
			"componentType":5126,
			"count":995,
			"type":"VEC3"
		},
		{
			"bufferView":2,
			"componentType":5126,
			"count":995,
			"type":"VEC2"
		},
		{
			"bufferView":3,
			"componentType":5123,
			"count":3096,
			"type":"SCALAR"
		},
		{
			"bufferView":4,
			"componentType":5126,
			"count":529,
			"max":[
				0.027333015576004982,
				0.514151930809021,
				0.02734382450580597
			],
			"min":[
				-0.027345342561602592,
				0.5025007128715515,
				-0.02733299694955349
			],
			"type":"VEC3"
		},
		{
			"bufferView":5,
			"componentType":5126,
			"count":529,
			"type":"VEC3"
		},
		{
			"bufferView":6,
			"componentType":5126,
			"count":529,
			"type":"VEC2"
		},
		{
			"bufferView":7,
			"componentType":5123,
			"count":1944,
			"type":"SCALAR"
		},
		{
			"bufferView":8,
			"componentType":5126,
			"count":7936,
			"max":[
				0.011547224596142769,
				0.49800240993499756,
				0.011547233909368515
			],
			"min":[
				-0.011547232046723366,
				-0.0007506868569180369,
				-0.011547228321433067
			],
			"type":"VEC3"
		},
		{
			"bufferView":9,
			"componentType":5126,
			"count":7936,
			"type":"VEC3"
		},
		{
			"bufferView":10,
			"componentType":5126,
			"count":7936,
			"type":"VEC2"
		},
		{
			"bufferView":11,
			"componentType":5123,
			"count":11904,
			"type":"SCALAR"
		}
	],
	"bufferViews":[
		{
			"buffer":0,
			"byteLength":11940,
			"byteOffset":0,
			"target":34962
		},
		{
			"buffer":0,
			"byteLength":11940,
			"byteOffset":11940,
			"target":34962
		},
		{
			"buffer":0,
			"byteLength":7960,
			"byteOffset":23880,
			"target":34962
		},
		{
			"buffer":0,
			"byteLength":6192,
			"byteOffset":31840,
			"target":34963
		},
		{
			"buffer":0,
			"byteLength":6348,
			"byteOffset":38032,
			"target":34962
		},
		{
			"buffer":0,
			"byteLength":6348,
			"byteOffset":44380,
			"target":34962
		},
		{
			"buffer":0,
			"byteLength":4232,
			"byteOffset":50728,
			"target":34962
		},
		{
			"buffer":0,
			"byteLength":3888,
			"byteOffset":54960,
			"target":34963
		},
		{
			"buffer":0,
			"byteLength":95232,
			"byteOffset":58848,
			"target":34962
		},
		{
			"buffer":0,
			"byteLength":95232,
			"byteOffset":154080,
			"target":34962
		},
		{
			"buffer":0,
			"byteLength":63488,
			"byteOffset":249312,
			"target":34962
		},
		{
			"buffer":0,
			"byteLength":23808,
			"byteOffset":312800,
			"target":34963
		}
	],
	"buffers":[
		{
			"byteLength":336608,
			"uri":"stick_03.bin"
		}
	]
}
