{
	"asset":{
		"generator":"Khronos glTF Blender I/O v5.0.21",
		"version":"2.0"
	},
	"scene":0,
	"scenes":[
		{
			"name":"Scene",
			"nodes":[
				0
			]
		}
	],
	"nodes":[
		{
			"mesh":0,
			"name":"stick_02"
		}
	],
	"meshes":[
		{
			"name":"stick_02",
			"primitives":[
				{
					"attributes":{
						"POSITION":0,
						"NORMAL":1,
						"TEXCOORD_0":2
					},
					"indices":3
				},
				{
					"attributes":{
						"POSITION":4,
						"NORMAL":5,
						"TEXCOORD_0":6
					},
					"indices":7
				}
			]
		}
	],
	"accessors":[
		{
			"bufferView":0,
			"componentType":5126,
			"count":204,
			"max":[
				0.010505395010113716,
				0.3985421359539032,
				0.010467170737683773
			],
			"min":[
				-0.010637074708938599,
				0.00021133571863174438,
				-0.010707437992095947
			],
			"type":"VEC3"
		},
		{
			"bufferView":1,
			"componentType":5126,
			"count":204,
			"type":"VEC3"
		},
		{
			"bufferView":2,
			"componentType":5126,
			"count":204,
			"type":"VEC2"
		},
		{
			"bufferView":3,
			"componentType":5123,
			"count":822,
			"type":"SCALAR"
		},
		{
			"bufferView":4,
			"componentType":5126,
			"count":951,
			"max":[
				0.016311394050717354,
				0.5135715007781982,
				0.016154706478118896
			],
			"min":[
				-0.016442837193608284,
				0.398540198802948,
				-0.01639464497566223
			],
			"type":"VEC3"
		},
		{
			"bufferView":5,
			"componentType":5126,
			"count":951,
			"type":"VEC3"
		},
		{
			"bufferView":6,
			"componentType":5126,
			"count":951,
			"type":"VEC2"
		},
		{
			"bufferView":7,
			"componentType":5123,
			"count":4428,
			"type":"SCALAR"
		}
	],
	"bufferViews":[
		{
			"buffer":0,
			"byteLength":2448,
			"byteOffset":0,
			"target":34962
		},
		{
			"buffer":0,
			"byteLength":2448,
			"byteOffset":2448,
			"target":34962
		},
		{
			"buffer":0,
			"byteLength":1632,
			"byteOffset":4896,
			"target":34962
		},
		{
			"buffer":0,
			"byteLength":1644,
			"byteOffset":6528,
			"target":34963
		},
		{
			"buffer":0,
			"byteLength":11412,
			"byteOffset":8172,
			"target":34962
		},
		{
			"buffer":0,
			"byteLength":11412,
			"byteOffset":19584,
			"target":34962
		},
		{
			"buffer":0,
			"byteLength":7608,
			"byteOffset":30996,
			"target":34962
		},
		{
			"buffer":0,
			"byteLength":8856,
			"byteOffset":38604,
			"target":34963
		}
	],
	"buffers":[
		{
			"byteLength":47460,
			"uri":"stick_02.bin"
		}
	]
}
