{
	"asset":{
		"generator":"Khronos glTF Blender I/O v5.0.21",
		"version":"2.0"
	},
	"scene":0,
	"scenes":[
		{
			"name":"Scene",
			"nodes":[
				0
			]
		}
	],
	"nodes":[
		{
			"mesh":0,
			"name":"stick_01"
		}
	],
	"meshes":[
		{
			"name":"stick_01",
			"primitives":[
				{
					"attributes":{
						"POSITION":0,
						"NORMAL":1,
						"TEXCOORD_0":2
					},
					"indices":3
				},
				{
					"attributes":{
						"POSITION":4,
						"NORMAL":5,
						"TEXCOORD_0":6
					},
					"indices":7
				}
			]
		}
	],
	"accessors":[
		{
			"bufferView":0,
			"componentType":5126,
			"count":171,
			"max":[
				0.020939186215400696,
				0.5043151378631592,
				0.0172027125954628
			],
			"min":[
				-0.017676763236522675,
				-5.276058800518513e-05,
				-0.021742425858974457
			],
			"type":"VEC3"
		},
		{
			"bufferView":1,
			"componentType":5126,
			"count":171,
			"type":"VEC3"
		},
		{
			"bufferView":2,
			"componentType":5126,
			"count":171,
			"type":"VEC2"
		},
		{
			"bufferView":3,
			"componentType":5123,
			"count":441,
			"type":"SCALAR"
		},
		{
			"bufferView":4,
			"componentType":5126,
			"count":174,
			"max":[
				0.023157235234975815,
				0.4962056875228882,
				0.018449692055583
			],
			"min":[
				-0.019894812256097794,
				0.3840312659740448,
				-0.024196673184633255
			],
			"type":"VEC3"
		},
		{
			"bufferView":5,
			"componentType":5126,
			"count":174,
			"type":"VEC3"
		},
		{
			"bufferView":6,
			"componentType":5126,
			"count":174,
			"type":"VEC2"
		},
		{
			"bufferView":7,
			"componentType":5123,
			"count":453,
			"type":"SCALAR"
		}
	],
	"bufferViews":[
		{
			"buffer":0,
			"byteLength":2052,
			"byteOffset":0,
			"target":34962
		},
		{
			"buffer":0,
			"byteLength":2052,
			"byteOffset":2052,
			"target":34962
		},
		{
			"buffer":0,
			"byteLength":1368,
			"byteOffset":4104,
			"target":34962
		},
		{
			"buffer":0,
			"byteLength":882,
			"byteOffset":5472,
			"target":34963
		},
		{
			"buffer":0,
			"byteLength":2088,
			"byteOffset":6356,
			"target":34962
		},
		{
			"buffer":0,
			"byteLength":2088,
			"byteOffset":8444,
			"target":34962
		},
		{
			"buffer":0,
			"byteLength":1392,
			"byteOffset":10532,
			"target":34962
		},
		{
			"buffer":0,
			"byteLength":906,
			"byteOffset":11924,
			"target":34963
		}
	],
	"buffers":[
		{
			"byteLength":12832,
			"uri":"stick_01.bin"
		}
	]
}
