{
	"asset":{
		"generator":"Khronos glTF Blender I/O v5.0.21",
		"version":"2.0"
	},
	"scene":0,
	"scenes":[
		{
			"name":"Scene",
			"nodes":[
				0,
				1,
				2,
				3
			]
		}
	],
	"nodes":[
		{
			"mesh":0,
			"name":"scrap_box_01",
			"translation":[
				-0.011983956210315228,
				-0.0002722716599237174,
				0.6576025485992432
			]
		},
		{
			"mesh":1,
			"name":"scrap_cable_01",
			"rotation":[
				0,
				0,
				-0.23606449365615845,
				0.9717373847961426
			],
			"translation":[
				-0.14721199870109558,
				0.06541752815246582,
				0.7029616832733154
			]
		},
		{
			"mesh":2,
			"name":"scrap_cable_02",
			"rotation":[
				0,
				0,
				-0.23606449365615845,
				0.9717373847961426
			],
			"translation":[
				-0.144644632935524,
				0.05640442296862602,
				0.6914131045341492
			]
		},
		{
			"mesh":3,
			"name":"scrap_cable_03",
			"rotation":[
				0,
				0,
				-0.23606449365615845,
				0.9717373847961426
			],
			"translation":[
				-0.144644632935524,
				0.05676029995083809,
				0.6694204211235046
			]
		}
	],
	"meshes":[
		{
			"name":"scrap_box_01",
			"primitives":[
				{
					"attributes":{
						"POSITION":0,
						"NORMAL":1,
						"TEXCOORD_0":2
					},
					"indices":3
				}
			]
		},
		{
			"name":"scrap_cable_01",
			"primitives":[
				{
					"attributes":{
						"POSITION":4,
						"NORMAL":5,
						"TEXCOORD_0":6
					},
					"indices":7
				},
				{
					"attributes":{
						"POSITION":8,
						"NORMAL":9,
						"TEXCOORD_0":10
					},
					"indices":11
				}
			]
		},
		{
			"name":"scrap_cable_02",
			"primitives":[
				{
					"attributes":{
						"POSITION":12,
						"NORMAL":13,
						"TEXCOORD_0":14
					},
					"indices":7
				},
				{
					"attributes":{
						"POSITION":15,
						"NORMAL":16,
						"TEXCOORD_0":17
					},
					"indices":18
				}
			]
		},
		{
			"name":"scrap_cable_03",
			"primitives":[
				{
					"attributes":{
						"POSITION":19,
						"NORMAL":20,
						"TEXCOORD_0":21
					},
					"indices":7
				},
				{
					"attributes":{
						"POSITION":22,
						"NORMAL":23,
						"TEXCOORD_0":24
					},
					"indices":18
				}
			]
		}
	],
	"accessors":[
		{
			"bufferView":0,
			"componentType":5126,
			"count":196,
			"max":[
				0.02557070180773735,
				0.01619194634258747,
				0.03840780258178711
			],
			"min":[
				-0.0014531314373016357,
				-0.015880446881055832,
				-0.040285706520080566
			],
			"type":"VEC3"
		},
		{
			"bufferView":1,
			"componentType":5126,
			"count":196,
			"type":"VEC3"
		},
		{
			"bufferView":2,
			"componentType":5126,
			"count":196,
			"type":"VEC2"
		},
		{
			"bufferView":3,
			"componentType":5123,
			"count":498,
			"type":"SCALAR"
		},
		{
			"bufferView":4,
			"componentType":5126,
			"count":80,
			"max":[
				0.1519606113433838,
				0.006799402646720409,
				-0.017399532720446587
			],
			"min":[
				0.1373075544834137,
				-0.00612282007932663,
				-0.025777744129300117
			],
			"type":"VEC3"
		},
		{
			"bufferView":5,
			"componentType":5126,
			"count":80,
			"type":"VEC3"
		},
		{
			"bufferView":6,
			"componentType":5126,
			"count":80,
			"type":"VEC2"
		},
		{
			"bufferView":7,
			"componentType":5123,
			"count":330,
			"type":"SCALAR"
		},
		{
			"bufferView":8,
			"componentType":5126,
			"count":844,
			"max":[
				0.14042332768440247,
				0.08428914099931717,
				0.029518332332372665
			],
			"min":[
				-0.14525915682315826,
				-0.025979148223996162,
				-0.02431781031191349
			],
			"type":"VEC3"
		},
		{
			"bufferView":9,
			"componentType":5126,
			"count":844,
			"type":"VEC3"
		},
		{
			"bufferView":10,
			"componentType":5126,
			"count":844,
			"type":"VEC2"
		},
		{
			"bufferView":11,
			"componentType":5123,
			"count":3840,
			"type":"SCALAR"
		},
		{
			"bufferView":12,
			"componentType":5126,
			"count":80,
			"max":[
				0.14548908174037933,
				0.013742923736572266,
				-0.03038082830607891
			],
			"min":[
				0.13077354431152344,
				0.000822888221591711,
				-0.038766901940107346
			],
			"type":"VEC3"
		},
		{
			"bufferView":13,
			"componentType":5126,
			"count":80,
			"type":"VEC3"
		},
		{
			"bufferView":14,
			"componentType":5126,
			"count":80,
			"type":"VEC2"
		},
		{
			"bufferView":15,
			"componentType":5126,
			"count":852,
			"max":[
				0.13472309708595276,
				0.09142754226922989,
				0.03740252926945686
			],
			"min":[
				-0.12645003199577332,
				-0.02867084927856922,
				-0.036847975105047226
			],
			"type":"VEC3"
		},
		{
			"bufferView":16,
			"componentType":5126,
			"count":852,
			"type":"VEC3"
		},
		{
			"bufferView":17,
			"componentType":5126,
			"count":852,
			"type":"VEC2"
		},
		{
			"bufferView":18,
			"componentType":5123,
			"count":3840,
			"type":"SCALAR"
		},
		{
			"bufferView":19,
			"componentType":5126,
			"count":80,
			"max":[
				0.14548908174037933,
				0.013742923736572266,
				-0.03038082830607891
			],
			"min":[
				0.13077354431152344,
				0.000822888221591711,
				-0.038766901940107346
			],
			"type":"VEC3"
		},
		{
			"bufferView":20,
			"componentType":5126,
			"count":80,
			"type":"VEC3"
		},
		{
			"bufferView":21,
			"componentType":5126,
			"count":80,
			"type":"VEC2"
		},
		{
			"bufferView":22,
			"componentType":5126,
			"count":852,
			"max":[
				0.13472309708595276,
				0.09142754226922989,
				0.03740252926945686
			],
			"min":[
				-0.12645003199577332,
				-0.02867084927856922,
				-0.036847975105047226
			],
			"type":"VEC3"
		},
		{
			"bufferView":23,
			"componentType":5126,
			"count":852,
			"type":"VEC3"
		},
		{
			"bufferView":24,
			"componentType":5126,
			"count":852,
			"type":"VEC2"
		}
	],
	"bufferViews":[
		{
			"buffer":0,
			"byteLength":2352,
			"byteOffset":0,
			"target":34962
		},
		{
			"buffer":0,
			"byteLength":2352,
			"byteOffset":2352,
			"target":34962
		},
		{
			"buffer":0,
			"byteLength":1568,
			"byteOffset":4704,
			"target":34962
		},
		{
			"buffer":0,
			"byteLength":996,
			"byteOffset":6272,
			"target":34963
		},
		{
			"buffer":0,
			"byteLength":960,
			"byteOffset":7268,
			"target":34962
		},
		{
			"buffer":0,
			"byteLength":960,
			"byteOffset":8228,
			"target":34962
		},
		{
			"buffer":0,
			"byteLength":640,
			"byteOffset":9188,
			"target":34962
		},
		{
			"buffer":0,
			"byteLength":660,
			"byteOffset":9828,
			"target":34963
		},
		{
			"buffer":0,
			"byteLength":10128,
			"byteOffset":10488,
			"target":34962
		},
		{
			"buffer":0,
			"byteLength":10128,
			"byteOffset":20616,
			"target":34962
		},
		{
			"buffer":0,
			"byteLength":6752,
			"byteOffset":30744,
			"target":34962
		},
		{
			"buffer":0,
			"byteLength":7680,
			"byteOffset":37496,
			"target":34963
		},
		{
			"buffer":0,
			"byteLength":960,
			"byteOffset":45176,
			"target":34962
		},
		{
			"buffer":0,
			"byteLength":960,
			"byteOffset":46136,
			"target":34962
		},
		{
			"buffer":0,
			"byteLength":640,
			"byteOffset":47096,
			"target":34962
		},
		{
			"buffer":0,
			"byteLength":10224,
			"byteOffset":47736,
			"target":34962
		},
		{
			"buffer":0,
			"byteLength":10224,
			"byteOffset":57960,
			"target":34962
		},
		{
			"buffer":0,
			"byteLength":6816,
			"byteOffset":68184,
			"target":34962
		},
		{
			"buffer":0,
			"byteLength":7680,
			"byteOffset":75000,
			"target":34963
		},
		{
			"buffer":0,
			"byteLength":960,
			"byteOffset":82680,
			"target":34962
		},
		{
			"buffer":0,
			"byteLength":960,
			"byteOffset":83640,
			"target":34962
		},
		{
			"buffer":0,
			"byteLength":640,
			"byteOffset":84600,
			"target":34962
		},
		{
			"buffer":0,
			"byteLength":10224,
			"byteOffset":85240,
			"target":34962
		},
		{
			"buffer":0,
			"byteLength":10224,
			"byteOffset":95464,
			"target":34962
		},
		{
			"buffer":0,
			"byteLength":6816,
			"byteOffset":105688,
			"target":34962
		}
	],
	"buffers":[
		{
			"byteLength":112504,
			"uri":"scrap_01.bin"
		}
	]
}
