{
	"asset":{
		"generator":"Khronos glTF Blender I/O v5.0.21",
		"version":"2.0"
	},
	"scene":0,
	"scenes":[
		{
			"name":"Scene",
			"nodes":[
				0
			]
		}
	],
	"nodes":[
		{
			"mesh":0,
			"name":"scrap_cable_01"
		}
	],
	"meshes":[
		{
			"name":"scrap_cable_01",
			"primitives":[
				{
					"attributes":{
						"POSITION":0,
						"NORMAL":1,
						"TEXCOORD_0":2
					},
					"indices":3
				},
				{
					"attributes":{
						"POSITION":4,
						"NORMAL":5,
						"TEXCOORD_0":6
					},
					"indices":7
				},
				{
					"attributes":{
						"POSITION":8,
						"NORMAL":9,
						"TEXCOORD_0":10
					},
					"indices":11
				}
			]
		}
	],
	"accessors":[
		{
			"bufferView":0,
			"componentType":5126,
			"count":392,
			"max":[
				0.04045942425727844,
				0.016353152692317963,
				0.013632148504257202
			],
			"min":[
				-0.03828313201665878,
				-0.015836842358112335,
				-0.01339024305343628
			],
			"type":"VEC3"
		},
		{
			"bufferView":1,
			"componentType":5126,
			"count":392,
			"type":"VEC3"
		},
		{
			"bufferView":2,
			"componentType":5126,
			"count":392,
			"type":"VEC2"
		},
		{
			"bufferView":3,
			"componentType":5123,
			"count":750,
			"type":"SCALAR"
		},
		{
			"bufferView":4,
			"componentType":5126,
			"count":144,
			"max":[
				0.029987776651978493,
				0.004300843924283981,
				0.024119889363646507
			],
			"min":[
				-0.024921612814068794,
				-0.0044989511370658875,
				0.010961800813674927
			],
			"type":"VEC3"
		},
		{
			"bufferView":5,
			"componentType":5126,
			"count":144,
			"type":"VEC3"
		},
		{
			"bufferView":6,
			"componentType":5126,
			"count":144,
			"type":"VEC2"
		},
		{
			"bufferView":7,
			"componentType":5123,
			"count":414,
			"type":"SCALAR"
		},
		{
			"bufferView":8,
			"componentType":5126,
			"count":1461,
			"max":[
				0.07663631439208984,
				0.2066086232662201,
				0.24739937484264374
			],
			"min":[
				-0.02300925925374031,
				-0.003722613677382469,
				0.022552071139216423
			],
			"type":"VEC3"
		},
		{
			"bufferView":9,
			"componentType":5126,
			"count":1461,
			"type":"VEC3"
		},
		{
			"bufferView":10,
			"componentType":5126,
			"count":1461,
			"type":"VEC2"
		},
		{
			"bufferView":11,
			"componentType":5123,
			"count":5631,
			"type":"SCALAR"
		}
	],
	"bufferViews":[
		{
			"buffer":0,
			"byteLength":4704,
			"byteOffset":0,
			"target":34962
		},
		{
			"buffer":0,
			"byteLength":4704,
			"byteOffset":4704,
			"target":34962
		},
		{
			"buffer":0,
			"byteLength":3136,
			"byteOffset":9408,
			"target":34962
		},
		{
			"buffer":0,
			"byteLength":1500,
			"byteOffset":12544,
			"target":34963
		},
		{
			"buffer":0,
			"byteLength":1728,
			"byteOffset":14044,
			"target":34962
		},
		{
			"buffer":0,
			"byteLength":1728,
			"byteOffset":15772,
			"target":34962
		},
		{
			"buffer":0,
			"byteLength":1152,
			"byteOffset":17500,
			"target":34962
		},
		{
			"buffer":0,
			"byteLength":828,
			"byteOffset":18652,
			"target":34963
		},
		{
			"buffer":0,
			"byteLength":17532,
			"byteOffset":19480,
			"target":34962
		},
		{
			"buffer":0,
			"byteLength":17532,
			"byteOffset":37012,
			"target":34962
		},
		{
			"buffer":0,
			"byteLength":11688,
			"byteOffset":54544,
			"target":34962
		},
		{
			"buffer":0,
			"byteLength":11262,
			"byteOffset":66232,
			"target":34963
		}
	],
	"buffers":[
		{
			"byteLength":77496,
			"uri":"scrap_cable_01.bin"
		}
	]
}
