{
	"asset":{
		"generator":"Khronos glTF Blender I/O v5.0.21",
		"version":"2.0"
	},
	"scene":0,
	"scenes":[
		{
			"name":"Scene",
			"nodes":[
				0
			]
		}
	],
	"nodes":[
		{
			"mesh":0,
			"name":"throttle_quadrant_02",
			"translation":[
				0,
				0.4092593193054199,
				-0.0631105825304985
			]
		}
	],
	"meshes":[
		{
			"name":"throttle_quadrant_02",
			"primitives":[
				{
					"attributes":{
						"POSITION":0,
						"NORMAL":1,
						"TEXCOORD_0":2
					},
					"indices":3
				},
				{
					"attributes":{
						"POSITION":4,
						"NORMAL":5,
						"TEXCOORD_0":6
					},
					"indices":7
				}
			]
		}
	],
	"accessors":[
		{
			"bufferView":0,
			"componentType":5126,
			"count":3768,
			"max":[
				0.0815289244055748,
				0.04925140365958214,
				0.10943067818880081
			],
			"min":[
				-0.08151701837778091,
				-0.4092702567577362,
				-0.02453354187309742
			],
			"type":"VEC3"
		},
		{
			"bufferView":1,
			"componentType":5126,
			"count":3768,
			"type":"VEC3"
		},
		{
			"bufferView":2,
			"componentType":5126,
			"count":3768,
			"type":"VEC2"
		},
		{
			"bufferView":3,
			"componentType":5123,
			"count":14595,
			"type":"SCALAR"
		},
		{
			"bufferView":4,
			"componentType":5126,
			"count":1826,
			"max":[
				0.07962047308683395,
				0.05765378102660179,
				0.05108468607068062
			],
			"min":[
				-0.07960855215787888,
				0.01589028723537922,
				-0.030542584136128426
			],
			"type":"VEC3"
		},
		{
			"bufferView":5,
			"componentType":5126,
			"count":1826,
			"type":"VEC3"
		},
		{
			"bufferView":6,
			"componentType":5126,
			"count":1826,
			"type":"VEC2"
		},
		{
			"bufferView":7,
			"componentType":5123,
			"count":7896,
			"type":"SCALAR"
		}
	],
	"bufferViews":[
		{
			"buffer":0,
			"byteLength":45216,
			"byteOffset":0,
			"target":34962
		},
		{
			"buffer":0,
			"byteLength":45216,
			"byteOffset":45216,
			"target":34962
		},
		{
			"buffer":0,
			"byteLength":30144,
			"byteOffset":90432,
			"target":34962
		},
		{
			"buffer":0,
			"byteLength":29190,
			"byteOffset":120576,
			"target":34963
		},
		{
			"buffer":0,
			"byteLength":21912,
			"byteOffset":149768,
			"target":34962
		},
		{
			"buffer":0,
			"byteLength":21912,
			"byteOffset":171680,
			"target":34962
		},
		{
			"buffer":0,
			"byteLength":14608,
			"byteOffset":193592,
			"target":34962
		},
		{
			"buffer":0,
			"byteLength":15792,
			"byteOffset":208200,
			"target":34963
		}
	],
	"buffers":[
		{
			"byteLength":223992,
			"uri":"throttle_quadrant_02.bin"
		}
	]
}
