{
	"asset":{
		"generator":"Khronos glTF Blender I/O v5.0.21",
		"version":"2.0"
	},
	"scene":0,
	"scenes":[
		{
			"name":"Scene",
			"nodes":[
				0
			]
		}
	],
	"nodes":[
		{
			"mesh":0,
			"name":"tape_baked_01"
		}
	],
	"meshes":[
		{
			"name":"tape_baked_01",
			"primitives":[
				{
					"attributes":{
						"POSITION":0,
						"NORMAL":1,
						"TEXCOORD_0":2
					},
					"indices":3
				}
			]
		}
	],
	"accessors":[
		{
			"bufferView":0,
			"componentType":5126,
			"count":5930,
			"max":[
				0.262117862701416,
				0.10799727588891983,
				0.013408533297479153
			],
			"min":[
				-0.2920095920562744,
				-0.14053145051002502,
				-0.01422345545142889
			],
			"type":"VEC3"
		},
		{
			"bufferView":1,
			"componentType":5126,
			"count":5930,
			"type":"VEC3"
		},
		{
			"bufferView":2,
			"componentType":5126,
			"count":5930,
			"type":"VEC2"
		},
		{
			"bufferView":3,
			"componentType":5123,
			"count":22029,
			"type":"SCALAR"
		}
	],
	"bufferViews":[
		{
			"buffer":0,
			"byteLength":71160,
			"byteOffset":0,
			"target":34962
		},
		{
			"buffer":0,
			"byteLength":71160,
			"byteOffset":71160,
			"target":34962
		},
		{
			"buffer":0,
			"byteLength":47440,
			"byteOffset":142320,
			"target":34962
		},
		{
			"buffer":0,
			"byteLength":44058,
			"byteOffset":189760,
			"target":34963
		}
	],
	"buffers":[
		{
			"byteLength":233820,
			"uri":"tape_baked_01.bin"
		}
	]
}
