{
	"asset":{
		"generator":"Khronos glTF Blender I/O v5.0.21",
		"version":"2.0"
	},
	"scene":0,
	"scenes":[
		{
			"name":"Scene",
			"nodes":[
				0
			]
		}
	],
	"nodes":[
		{
			"mesh":0,
			"name":"tape_03",
			"rotation":[
				-0.5000001788139343,
				0.5000000596046448,
				-0.4999998211860657,
				0.4999999403953552
			]
		}
	],
	"meshes":[
		{
			"name":"tape_03",
			"primitives":[
				{
					"attributes":{
						"POSITION":0,
						"NORMAL":1,
						"TEXCOORD_0":2
					},
					"indices":3
				}
			]
		}
	],
	"accessors":[
		{
			"bufferView":0,
			"componentType":5126,
			"count":100,
			"max":[
				0.015226013958454132,
				0.034611307084560394,
				0.003981474321335554
			],
			"min":[
				-0.01460348442196846,
				-0.036570459604263306,
				-0.006904164329171181
			],
			"type":"VEC3"
		},
		{
			"bufferView":1,
			"componentType":5126,
			"count":100,
			"type":"VEC3"
		},
		{
			"bufferView":2,
			"componentType":5126,
			"count":100,
			"type":"VEC2"
		},
		{
			"bufferView":3,
			"componentType":5123,
			"count":324,
			"type":"SCALAR"
		}
	],
	"bufferViews":[
		{
			"buffer":0,
			"byteLength":1200,
			"byteOffset":0,
			"target":34962
		},
		{
			"buffer":0,
			"byteLength":1200,
			"byteOffset":1200,
			"target":34962
		},
		{
			"buffer":0,
			"byteLength":800,
			"byteOffset":2400,
			"target":34962
		},
		{
			"buffer":0,
			"byteLength":648,
			"byteOffset":3200,
			"target":34963
		}
	],
	"buffers":[
		{
			"byteLength":3848,
			"uri":"tape_03.bin"
		}
	]
}
