{
	"asset":{
		"generator":"Khronos glTF Blender I/O v5.0.21",
		"version":"2.0"
	},
	"scene":0,
	"scenes":[
		{
			"name":"Scene",
			"nodes":[
				0
			]
		}
	],
	"nodes":[
		{
			"mesh":0,
			"name":"key_hole",
			"translation":[
				-4.9666446102492046e-06,
				0.008276624605059624,
				-0.001189604983665049
			]
		}
	],
	"meshes":[
		{
			"name":"key_hole",
			"primitives":[
				{
					"attributes":{
						"POSITION":0,
						"NORMAL":1,
						"TEXCOORD_0":2
					},
					"indices":3
				},
				{
					"attributes":{
						"POSITION":4,
						"NORMAL":5,
						"TEXCOORD_0":6
					},
					"indices":7
				}
			]
		}
	],
	"accessors":[
		{
			"bufferView":0,
			"componentType":5126,
			"count":3232,
			"max":[
				0.02483868971467018,
				0.0017246392089873552,
				0.026023853570222855
			],
			"min":[
				-0.024828769266605377,
				-0.008276627399027348,
				-0.023644644767045975
			],
			"type":"VEC3"
		},
		{
			"bufferView":1,
			"componentType":5126,
			"count":3232,
			"type":"VEC3"
		},
		{
			"bufferView":2,
			"componentType":5126,
			"count":3232,
			"type":"VEC2"
		},
		{
			"bufferView":3,
			"componentType":5123,
			"count":16002,
			"type":"SCALAR"
		},
		{
			"bufferView":4,
			"componentType":5126,
			"count":900,
			"max":[
				0.008590579964220524,
				0.002314826473593712,
				0.019109155982732773
			],
			"min":[
				-0.008581753820180893,
				-0.0028353603556752205,
				-0.016729945316910744
			],
			"type":"VEC3"
		},
		{
			"bufferView":5,
			"componentType":5126,
			"count":900,
			"type":"VEC3"
		},
		{
			"bufferView":6,
			"componentType":5126,
			"count":900,
			"type":"VEC2"
		},
		{
			"bufferView":7,
			"componentType":5123,
			"count":2718,
			"type":"SCALAR"
		}
	],
	"bufferViews":[
		{
			"buffer":0,
			"byteLength":38784,
			"byteOffset":0,
			"target":34962
		},
		{
			"buffer":0,
			"byteLength":38784,
			"byteOffset":38784,
			"target":34962
		},
		{
			"buffer":0,
			"byteLength":25856,
			"byteOffset":77568,
			"target":34962
		},
		{
			"buffer":0,
			"byteLength":32004,
			"byteOffset":103424,
			"target":34963
		},
		{
			"buffer":0,
			"byteLength":10800,
			"byteOffset":135428,
			"target":34962
		},
		{
			"buffer":0,
			"byteLength":10800,
			"byteOffset":146228,
			"target":34962
		},
		{
			"buffer":0,
			"byteLength":7200,
			"byteOffset":157028,
			"target":34962
		},
		{
			"buffer":0,
			"byteLength":5436,
			"byteOffset":164228,
			"target":34963
		}
	],
	"buffers":[
		{
			"byteLength":169664,
			"uri":"key_hole.bin"
		}
	]
}
