{
	"asset":{
		"generator":"Khronos glTF Blender I/O v5.0.21",
		"version":"2.0"
	},
	"scene":0,
	"scenes":[
		{
			"name":"Scene",
			"nodes":[
				0
			]
		}
	],
	"nodes":[
		{
			"mesh":0,
			"name":"key_01",
			"rotation":[
				0,
				1,
				0,
				4.371138828673793e-08
			],
			"scale":[
				0.008024754002690315,
				0.008024754002690315,
				0.008024755865335464
			]
		}
	],
	"meshes":[
		{
			"name":"key",
			"primitives":[
				{
					"attributes":{
						"POSITION":0,
						"NORMAL":1,
						"TEXCOORD_0":2,
						"TEXCOORD_1":3,
						"TEXCOORD_2":4,
						"COLOR_0":5
					},
					"indices":6
				},
				{
					"attributes":{
						"POSITION":7,
						"NORMAL":8,
						"TEXCOORD_0":9,
						"TEXCOORD_1":10,
						"TEXCOORD_2":11,
						"COLOR_0":12
					},
					"indices":13
				},
				{
					"attributes":{
						"POSITION":14,
						"NORMAL":15,
						"TEXCOORD_0":16,
						"TEXCOORD_1":17,
						"TEXCOORD_2":18,
						"COLOR_0":19
					},
					"indices":20
				}
			]
		}
	],
	"accessors":[
		{
			"bufferView":0,
			"componentType":5126,
			"count":335,
			"max":[
				1.816857099533081,
				0.2701665163040161,
				1.5824676752090454
			],
			"min":[
				-2.0141897201538086,
				-0.2935454249382019,
				-1.4540821313858032
			],
			"type":"VEC3"
		},
		{
			"bufferView":1,
			"componentType":5126,
			"count":335,
			"type":"VEC3"
		},
		{
			"bufferView":2,
			"componentType":5126,
			"count":335,
			"type":"VEC2"
		},
		{
			"bufferView":3,
			"componentType":5126,
			"count":335,
			"type":"VEC2"
		},
		{
			"bufferView":4,
			"componentType":5126,
			"count":335,
			"type":"VEC2"
		},
		{
			"bufferView":5,
			"componentType":5123,
			"count":335,
			"normalized":true,
			"type":"VEC4"
		},
		{
			"bufferView":6,
			"componentType":5123,
			"count":1344,
			"type":"SCALAR"
		},
		{
			"bufferView":7,
			"componentType":5126,
			"count":2235,
			"max":[
				0.6411598920822144,
				1.804850697517395,
				4.348026275634766
			],
			"min":[
				-0.8384926319122314,
				-1.8050004243850708,
				-6.719257831573486
			],
			"type":"VEC3"
		},
		{
			"bufferView":8,
			"componentType":5126,
			"count":2235,
			"type":"VEC3"
		},
		{
			"bufferView":9,
			"componentType":5126,
			"count":2235,
			"type":"VEC2"
		},
		{
			"bufferView":10,
			"componentType":5126,
			"count":2235,
			"type":"VEC2"
		},
		{
			"bufferView":11,
			"componentType":5126,
			"count":2235,
			"type":"VEC2"
		},
		{
			"bufferView":12,
			"componentType":5123,
			"count":2235,
			"normalized":true,
			"type":"VEC4"
		},
		{
			"bufferView":13,
			"componentType":5123,
			"count":9108,
			"type":"SCALAR"
		},
		{
			"bufferView":14,
			"componentType":5126,
			"count":804,
			"max":[
				1.9602339267730713,
				1.8293662071228027,
				10.442420959472656
			],
			"min":[
				-0.3151609003543854,
				-1.8465038537979126,
				3.8298702239990234
			],
			"type":"VEC3"
		},
		{
			"bufferView":15,
			"componentType":5126,
			"count":804,
			"type":"VEC3"
		},
		{
			"bufferView":16,
			"componentType":5126,
			"count":804,
			"type":"VEC2"
		},
		{
			"bufferView":17,
			"componentType":5126,
			"count":804,
			"type":"VEC2"
		},
		{
			"bufferView":18,
			"componentType":5126,
			"count":804,
			"type":"VEC2"
		},
		{
			"bufferView":19,
			"componentType":5123,
			"count":804,
			"normalized":true,
			"type":"VEC4"
		},
		{
			"bufferView":20,
			"componentType":5123,
			"count":2568,
			"type":"SCALAR"
		}
	],
	"bufferViews":[
		{
			"buffer":0,
			"byteLength":4020,
			"byteOffset":0,
			"target":34962
		},
		{
			"buffer":0,
			"byteLength":4020,
			"byteOffset":4020,
			"target":34962
		},
		{
			"buffer":0,
			"byteLength":2680,
			"byteOffset":8040,
			"target":34962
		},
		{
			"buffer":0,
			"byteLength":2680,
			"byteOffset":10720,
			"target":34962
		},
		{
			"buffer":0,
			"byteLength":2680,
			"byteOffset":13400,
			"target":34962
		},
		{
			"buffer":0,
			"byteLength":2680,
			"byteOffset":16080,
			"target":34962
		},
		{
			"buffer":0,
			"byteLength":2688,
			"byteOffset":18760,
			"target":34963
		},
		{
			"buffer":0,
			"byteLength":26820,
			"byteOffset":21448,
			"target":34962
		},
		{
			"buffer":0,
			"byteLength":26820,
			"byteOffset":48268,
			"target":34962
		},
		{
			"buffer":0,
			"byteLength":17880,
			"byteOffset":75088,
			"target":34962
		},
		{
			"buffer":0,
			"byteLength":17880,
			"byteOffset":92968,
			"target":34962
		},
		{
			"buffer":0,
			"byteLength":17880,
			"byteOffset":110848,
			"target":34962
		},
		{
			"buffer":0,
			"byteLength":17880,
			"byteOffset":128728,
			"target":34962
		},
		{
			"buffer":0,
			"byteLength":18216,
			"byteOffset":146608,
			"target":34963
		},
		{
			"buffer":0,
			"byteLength":9648,
			"byteOffset":164824,
			"target":34962
		},
		{
			"buffer":0,
			"byteLength":9648,
			"byteOffset":174472,
			"target":34962
		},
		{
			"buffer":0,
			"byteLength":6432,
			"byteOffset":184120,
			"target":34962
		},
		{
			"buffer":0,
			"byteLength":6432,
			"byteOffset":190552,
			"target":34962
		},
		{
			"buffer":0,
			"byteLength":6432,
			"byteOffset":196984,
			"target":34962
		},
		{
			"buffer":0,
			"byteLength":6432,
			"byteOffset":203416,
			"target":34962
		},
		{
			"buffer":0,
			"byteLength":5136,
			"byteOffset":209848,
			"target":34963
		}
	],
	"buffers":[
		{
			"byteLength":214984,
			"uri":"key_01.bin"
		}
	]
}
