{
	"asset":{
		"generator":"Khronos glTF Blender I/O v5.0.21",
		"version":"2.0"
	},
	"scene":0,
	"scenes":[
		{
			"name":"Scene",
			"nodes":[
				0
			]
		}
	],
	"nodes":[
		{
			"mesh":0,
			"name":"pilot_right_hand",
			"translation":[
				0.07455301284790039,
				0.4096304774284363,
				-0.4330735504627228
			]
		}
	],
	"meshes":[
		{
			"name":"pilot_right_hand",
			"primitives":[
				{
					"attributes":{
						"POSITION":0,
						"NORMAL":1,
						"TEXCOORD_0":2,
						"COLOR_0":3
					},
					"indices":4
				}
			]
		}
	],
	"accessors":[
		{
			"bufferView":0,
			"componentType":5126,
			"count":3283,
			"max":[
				0.00015587665257044137,
				0.07638785243034363,
				0.43893298506736755
			],
			"min":[
				-0.13470402359962463,
				-0.12627939879894257,
				-0.0011689473176375031
			],
			"type":"VEC3"
		},
		{
			"bufferView":1,
			"componentType":5126,
			"count":3283,
			"type":"VEC3"
		},
		{
			"bufferView":2,
			"componentType":5126,
			"count":3283,
			"type":"VEC2"
		},
		{
			"bufferView":3,
			"componentType":5123,
			"count":3283,
			"normalized":true,
			"type":"VEC4"
		},
		{
			"bufferView":4,
			"componentType":5123,
			"count":18231,
			"type":"SCALAR"
		}
	],
	"bufferViews":[
		{
			"buffer":0,
			"byteLength":39396,
			"byteOffset":0,
			"target":34962
		},
		{
			"buffer":0,
			"byteLength":39396,
			"byteOffset":39396,
			"target":34962
		},
		{
			"buffer":0,
			"byteLength":26264,
			"byteOffset":78792,
			"target":34962
		},
		{
			"buffer":0,
			"byteLength":26264,
			"byteOffset":105056,
			"target":34962
		},
		{
			"buffer":0,
			"byteLength":36462,
			"byteOffset":131320,
			"target":34963
		}
	],
	"buffers":[
		{
			"byteLength":167784,
			"uri":"pilot_right_hand.bin"
		}
	]
}
