{
	"asset":{
		"generator":"Khronos glTF Blender I/O v5.0.21",
		"version":"2.0"
	},
	"scene":0,
	"scenes":[
		{
			"name":"Scene",
			"nodes":[
				0
			]
		}
	],
	"nodes":[
		{
			"mesh":0,
			"name":"pilot_left_hand",
			"translation":[
				-0.12825599312782288,
				0.38371095061302185,
				-0.43992599844932556
			]
		}
	],
	"meshes":[
		{
			"name":"pilot_left_hand",
			"primitives":[
				{
					"attributes":{
						"POSITION":0,
						"NORMAL":1,
						"TEXCOORD_0":2,
						"COLOR_0":3
					},
					"indices":4
				}
			]
		}
	],
	"accessors":[
		{
			"bufferView":0,
			"componentType":5126,
			"count":3528,
			"max":[
				0.18494512140750885,
				0.1505952924489975,
				0.4836459755897522
			],
			"min":[
				-0.0009667683043517172,
				-0.10032888501882553,
				-0.06741239875555038
			],
			"type":"VEC3"
		},
		{
			"bufferView":1,
			"componentType":5126,
			"count":3528,
			"type":"VEC3"
		},
		{
			"bufferView":2,
			"componentType":5126,
			"count":3528,
			"type":"VEC2"
		},
		{
			"bufferView":3,
			"componentType":5123,
			"count":3528,
			"normalized":true,
			"type":"VEC4"
		},
		{
			"bufferView":4,
			"componentType":5123,
			"count":19644,
			"type":"SCALAR"
		}
	],
	"bufferViews":[
		{
			"buffer":0,
			"byteLength":42336,
			"byteOffset":0,
			"target":34962
		},
		{
			"buffer":0,
			"byteLength":42336,
			"byteOffset":42336,
			"target":34962
		},
		{
			"buffer":0,
			"byteLength":28224,
			"byteOffset":84672,
			"target":34962
		},
		{
			"buffer":0,
			"byteLength":28224,
			"byteOffset":112896,
			"target":34962
		},
		{
			"buffer":0,
			"byteLength":39288,
			"byteOffset":141120,
			"target":34963
		}
	],
	"buffers":[
		{
			"byteLength":180408,
			"uri":"pilot_left_hand.bin"
		}
	]
}
