{
	"asset":{
		"generator":"Khronos glTF Blender I/O v5.0.21",
		"version":"2.0"
	},
	"scene":0,
	"scenes":[
		{
			"name":"Scene",
			"nodes":[
				0
			]
		}
	],
	"nodes":[
		{
			"mesh":0,
			"name":"dots_deco",
			"translation":[
				0.03944314271211624,
				1.6076027154922485,
				0.44875451922416687
			]
		}
	],
	"materials":[
		{
			"doubleSided":true,
			"name":"Green Metal Rust",
			"normalTexture":{
				"index":0
			},
			"pbrMetallicRoughness":{
				"baseColorTexture":{
					"index":1
				},
				"metallicFactor":0,
				"metallicRoughnessTexture":{
					"index":2
				}
			}
		}
	],
	"meshes":[
		{
			"name":"dots_deco",
			"primitives":[
				{
					"attributes":{
						"POSITION":0,
						"NORMAL":1,
						"TEXCOORD_0":2
					},
					"indices":3,
					"material":0
				}
			]
		}
	],
	"textures":[
		{
			"sampler":0,
			"source":0
		},
		{
			"sampler":0,
			"source":1
		},
		{
			"sampler":0,
			"source":2
		}
	],
	"images":[
		{
			"mimeType":"image/png",
			"name":"green_metal_rust_Nor_4k",
			"uri":"green_metal_rust_Nor_4k.png"
		},
		{
			"mimeType":"image/jpeg",
			"name":"green_metal_rust_diff_4k",
			"uri":"green_metal_rust_diff_4k.jpg"
		},
		{
			"mimeType":"image/png",
			"name":"green_metal_rust_rough_4k",
			"uri":"green_metal_rust_rough_4k.png"
		}
	],
	"accessors":[
		{
			"bufferView":0,
			"componentType":5126,
			"count":5298,
			"max":[
				0.5211221575737,
				0.15527650713920593,
				0.03412667289376259
			],
			"min":[
				-0.5911349058151245,
				-0.22100767493247986,
				-0.10874085128307343
			],
			"type":"VEC3"
		},
		{
			"bufferView":1,
			"componentType":5126,
			"count":5298,
			"type":"VEC3"
		},
		{
			"bufferView":2,
			"componentType":5126,
			"count":5298,
			"type":"VEC2"
		},
		{
			"bufferView":3,
			"componentType":5123,
			"count":18816,
			"type":"SCALAR"
		}
	],
	"bufferViews":[
		{
			"buffer":0,
			"byteLength":63576,
			"byteOffset":0,
			"target":34962
		},
		{
			"buffer":0,
			"byteLength":63576,
			"byteOffset":63576,
			"target":34962
		},
		{
			"buffer":0,
			"byteLength":42384,
			"byteOffset":127152,
			"target":34962
		},
		{
			"buffer":0,
			"byteLength":37632,
			"byteOffset":169536,
			"target":34963
		}
	],
	"samplers":[
		{
			"magFilter":9729,
			"minFilter":9987
		}
	],
	"buffers":[
		{
			"byteLength":207168,
			"uri":"dots_deco.bin"
		}
	]
}
