{
	"asset":{
		"generator":"Khronos glTF Blender I/O v5.0.21",
		"version":"2.0"
	},
	"scene":0,
	"scenes":[
		{
			"name":"Scene",
			"nodes":[
				0,
				1,
				2,
				3,
				4
			]
		}
	],
	"nodes":[
		{
			"mesh":0,
			"name":"full_plane_body",
			"translation":[
				-0.02498091571033001,
				0.9431047439575195,
				0.6445707082748413
			]
		},
		{
			"mesh":1,
			"name":"full_plane_right_part",
			"translation":[
				-5.09495210647583,
				1.780571460723877,
				0.6348922252655029
			]
		},
		{
			"mesh":2,
			"name":"full_plane_left_part",
			"translation":[
				4.08084774017334,
				1.7462542057037354,
				0.5684919357299805
			]
		},
		{
			"mesh":3,
			"name":"full_plane_left_back_part",
			"translation":[
				1.389860987663269,
				0.8600369691848755,
				-4.140363693237305
			]
		},
		{
			"mesh":4,
			"name":"full_plane_right_back_part",
			"rotation":[
				-0.017452405765652657,
				0,
				0,
				0.9998477101325989
			],
			"translation":[
				-1.1522990465164185,
				0.8631912469863892,
				-4.144489288330078
			]
		}
	],
	"meshes":[
		{
			"name":"full_plane_body",
			"primitives":[
				{
					"attributes":{
						"POSITION":0,
						"NORMAL":1,
						"TEXCOORD_0":2
					},
					"indices":3
				},
				{
					"attributes":{
						"POSITION":4,
						"NORMAL":5,
						"TEXCOORD_0":6
					},
					"indices":7
				},
				{
					"attributes":{
						"POSITION":8,
						"NORMAL":9,
						"TEXCOORD_0":10
					},
					"indices":11
				},
				{
					"attributes":{
						"POSITION":12,
						"NORMAL":13,
						"TEXCOORD_0":14
					},
					"indices":15
				},
				{
					"attributes":{
						"POSITION":16,
						"NORMAL":17,
						"TEXCOORD_0":18
					},
					"indices":19
				},
				{
					"attributes":{
						"POSITION":20,
						"NORMAL":21,
						"TEXCOORD_0":22
					},
					"indices":23
				}
			]
		},
		{
			"name":"full_plane_right_part",
			"primitives":[
				{
					"attributes":{
						"POSITION":24,
						"NORMAL":25,
						"TEXCOORD_0":26
					},
					"indices":27
				}
			]
		},
		{
			"name":"full_plane_left_part",
			"primitives":[
				{
					"attributes":{
						"POSITION":28,
						"NORMAL":29,
						"TEXCOORD_0":30
					},
					"indices":31
				}
			]
		},
		{
			"name":"full_plane_left_back_part",
			"primitives":[
				{
					"attributes":{
						"POSITION":32,
						"NORMAL":33,
						"TEXCOORD_0":34
					},
					"indices":35
				}
			]
		},
		{
			"name":"full_plane_right_back_part",
			"primitives":[
				{
					"attributes":{
						"POSITION":36,
						"NORMAL":37,
						"TEXCOORD_0":38
					},
					"indices":39
				}
			]
		}
	],
	"accessors":[
		{
			"bufferView":0,
			"componentType":5126,
			"count":7195,
			"max":[
				2.5554144382476807,
				0.8010990619659424,
				2.3260419368743896
			],
			"min":[
				-0.5816314220428467,
				-0.8483664989471436,
				-1.6964163780212402
			],
			"type":"VEC3"
		},
		{
			"bufferView":1,
			"componentType":5126,
			"count":7195,
			"type":"VEC3"
		},
		{
			"bufferView":2,
			"componentType":5126,
			"count":7195,
			"type":"VEC2"
		},
		{
			"bufferView":3,
			"componentType":5123,
			"count":28758,
			"type":"SCALAR"
		},
		{
			"bufferView":4,
			"componentType":5126,
			"count":33105,
			"max":[
				0.6519005298614502,
				1.5422134399414062,
				2.332503318786621
			],
			"min":[
				-0.6088449358940125,
				-0.8380453586578369,
				-5.335637092590332
			],
			"type":"VEC3"
		},
		{
			"bufferView":5,
			"componentType":5126,
			"count":33105,
			"type":"VEC3"
		},
		{
			"bufferView":6,
			"componentType":5126,
			"count":33105,
			"type":"VEC2"
		},
		{
			"bufferView":7,
			"componentType":5123,
			"count":146340,
			"type":"SCALAR"
		},
		{
			"bufferView":8,
			"componentType":5126,
			"count":10583,
			"max":[
				0.6194695830345154,
				0.664698600769043,
				0.8612320423126221
			],
			"min":[
				-0.5695083737373352,
				-0.5261120200157166,
				-1.318028450012207
			],
			"type":"VEC3"
		},
		{
			"bufferView":9,
			"componentType":5126,
			"count":10583,
			"type":"VEC3"
		},
		{
			"bufferView":10,
			"componentType":5126,
			"count":10583,
			"type":"VEC2"
		},
		{
			"bufferView":11,
			"componentType":5123,
			"count":40740,
			"type":"SCALAR"
		},
		{
			"bufferView":12,
			"componentType":5126,
			"count":3124,
			"max":[
				6.384191989898682,
				1.7525291442871094,
				1.787956714630127
			],
			"min":[
				-0.6047990918159485,
				0.08713185787200928,
				-5.588069915771484
			],
			"type":"VEC3"
		},
		{
			"bufferView":13,
			"componentType":5126,
			"count":3124,
			"type":"VEC3"
		},
		{
			"bufferView":14,
			"componentType":5126,
			"count":3124,
			"type":"VEC2"
		},
		{
			"bufferView":15,
			"componentType":5123,
			"count":13488,
			"type":"SCALAR"
		},
		{
			"bufferView":16,
			"componentType":5126,
			"count":418,
			"max":[
				0.048689380288124084,
				1.8187425136566162,
				-5.53510856628418
			],
			"min":[
				-0.0026762355118989944,
				1.7525279521942139,
				-5.58647346496582
			],
			"type":"VEC3"
		},
		{
			"bufferView":17,
			"componentType":5126,
			"count":418,
			"type":"VEC3"
		},
		{
			"bufferView":18,
			"componentType":5126,
			"count":418,
			"type":"VEC2"
		},
		{
			"bufferView":19,
			"componentType":5123,
			"count":1824,
			"type":"SCALAR"
		},
		{
			"bufferView":20,
			"componentType":5126,
			"count":62483,
			"max":[
				6.429813861846924,
				1.7528722286224365,
				3.2625632286071777
			],
			"min":[
				-6.379856109619141,
				-0.9526244401931763,
				-6.408849716186523
			],
			"type":"VEC3"
		},
		{
			"bufferView":21,
			"componentType":5126,
			"count":62483,
			"type":"VEC3"
		},
		{
			"bufferView":22,
			"componentType":5126,
			"count":62483,
			"type":"VEC2"
		},
		{
			"bufferView":23,
			"componentType":5123,
			"count":291846,
			"type":"SCALAR"
		},
		{
			"bufferView":24,
			"componentType":5126,
			"count":24,
			"max":[
				1.0155105590820312,
				0.03367185592651367,
				0.09457385540008545
			],
			"min":[
				-0.9564914703369141,
				-0.19097113609313965,
				-0.5596092939376831
			],
			"type":"VEC3"
		},
		{
			"bufferView":25,
			"componentType":5126,
			"count":24,
			"type":"VEC3"
		},
		{
			"bufferView":26,
			"componentType":5126,
			"count":24,
			"type":"VEC2"
		},
		{
			"bufferView":27,
			"componentType":5123,
			"count":48,
			"type":"SCALAR"
		},
		{
			"bufferView":28,
			"componentType":5126,
			"count":24,
			"max":[
				1.9705909490585327,
				0.06798920035362244,
				0.16097351908683777
			],
			"min":[
				-0.0014110803604125977,
				-0.15665379166603088,
				-0.4932096302509308
			],
			"type":"VEC3"
		},
		{
			"bufferView":29,
			"componentType":5126,
			"count":24,
			"type":"VEC3"
		},
		{
			"bufferView":30,
			"componentType":5126,
			"count":24,
			"type":"VEC2"
		},
		{
			"bufferView":31,
			"componentType":5123,
			"count":48,
			"type":"SCALAR"
		},
		{
			"bufferView":32,
			"componentType":5126,
			"count":576,
			"max":[
				1.0008748769760132,
				0.05019533634185791,
				0.4242057800292969
			],
			"min":[
				-1.2324331998825073,
				-0.07941174507141113,
				-0.6199417114257812
			],
			"type":"VEC3"
		},
		{
			"bufferView":33,
			"componentType":5126,
			"count":576,
			"type":"VEC3"
		},
		{
			"bufferView":34,
			"componentType":5126,
			"count":576,
			"type":"VEC2"
		},
		{
			"bufferView":35,
			"componentType":5123,
			"count":2628,
			"type":"SCALAR"
		},
		{
			"bufferView":36,
			"componentType":5126,
			"count":576,
			"max":[
				0.9948712587356567,
				0.04704105854034424,
				0.4283313751220703
			],
			"min":[
				-1.2384368181228638,
				-0.0825660228729248,
				-0.6158161163330078
			],
			"type":"VEC3"
		},
		{
			"bufferView":37,
			"componentType":5126,
			"count":576,
			"type":"VEC3"
		},
		{
			"bufferView":38,
			"componentType":5126,
			"count":576,
			"type":"VEC2"
		},
		{
			"bufferView":39,
			"componentType":5123,
			"count":2628,
			"type":"SCALAR"
		}
	],
	"bufferViews":[
		{
			"buffer":0,
			"byteLength":86340,
			"byteOffset":0,
			"target":34962
		},
		{
			"buffer":0,
			"byteLength":86340,
			"byteOffset":86340,
			"target":34962
		},
		{
			"buffer":0,
			"byteLength":57560,
			"byteOffset":172680,
			"target":34962
		},
		{
			"buffer":0,
			"byteLength":57516,
			"byteOffset":230240,
			"target":34963
		},
		{
			"buffer":0,
			"byteLength":397260,
			"byteOffset":287756,
			"target":34962
		},
		{
			"buffer":0,
			"byteLength":397260,
			"byteOffset":685016,
			"target":34962
		},
		{
			"buffer":0,
			"byteLength":264840,
			"byteOffset":1082276,
			"target":34962
		},
		{
			"buffer":0,
			"byteLength":292680,
			"byteOffset":1347116,
			"target":34963
		},
		{
			"buffer":0,
			"byteLength":126996,
			"byteOffset":1639796,
			"target":34962
		},
		{
			"buffer":0,
			"byteLength":126996,
			"byteOffset":1766792,
			"target":34962
		},
		{
			"buffer":0,
			"byteLength":84664,
			"byteOffset":1893788,
			"target":34962
		},
		{
			"buffer":0,
			"byteLength":81480,
			"byteOffset":1978452,
			"target":34963
		},
		{
			"buffer":0,
			"byteLength":37488,
			"byteOffset":2059932,
			"target":34962
		},
		{
			"buffer":0,
			"byteLength":37488,
			"byteOffset":2097420,
			"target":34962
		},
		{
			"buffer":0,
			"byteLength":24992,
			"byteOffset":2134908,
			"target":34962
		},
		{
			"buffer":0,
			"byteLength":26976,
			"byteOffset":2159900,
			"target":34963
		},
		{
			"buffer":0,
			"byteLength":5016,
			"byteOffset":2186876,
			"target":34962
		},
		{
			"buffer":0,
			"byteLength":5016,
			"byteOffset":2191892,
			"target":34962
		},
		{
			"buffer":0,
			"byteLength":3344,
			"byteOffset":2196908,
			"target":34962
		},
		{
			"buffer":0,
			"byteLength":3648,
			"byteOffset":2200252,
			"target":34963
		},
		{
			"buffer":0,
			"byteLength":749796,
			"byteOffset":2203900,
			"target":34962
		},
		{
			"buffer":0,
			"byteLength":749796,
			"byteOffset":2953696,
			"target":34962
		},
		{
			"buffer":0,
			"byteLength":499864,
			"byteOffset":3703492,
			"target":34962
		},
		{
			"buffer":0,
			"byteLength":583692,
			"byteOffset":4203356,
			"target":34963
		},
		{
			"buffer":0,
			"byteLength":288,
			"byteOffset":4787048,
			"target":34962
		},
		{
			"buffer":0,
			"byteLength":288,
			"byteOffset":4787336,
			"target":34962
		},
		{
			"buffer":0,
			"byteLength":192,
			"byteOffset":4787624,
			"target":34962
		},
		{
			"buffer":0,
			"byteLength":96,
			"byteOffset":4787816,
			"target":34963
		},
		{
			"buffer":0,
			"byteLength":288,
			"byteOffset":4787912,
			"target":34962
		},
		{
			"buffer":0,
			"byteLength":288,
			"byteOffset":4788200,
			"target":34962
		},
		{
			"buffer":0,
			"byteLength":192,
			"byteOffset":4788488,
			"target":34962
		},
		{
			"buffer":0,
			"byteLength":96,
			"byteOffset":4788680,
			"target":34963
		},
		{
			"buffer":0,
			"byteLength":6912,
			"byteOffset":4788776,
			"target":34962
		},
		{
			"buffer":0,
			"byteLength":6912,
			"byteOffset":4795688,
			"target":34962
		},
		{
			"buffer":0,
			"byteLength":4608,
			"byteOffset":4802600,
			"target":34962
		},
		{
			"buffer":0,
			"byteLength":5256,
			"byteOffset":4807208,
			"target":34963
		},
		{
			"buffer":0,
			"byteLength":6912,
			"byteOffset":4812464,
			"target":34962
		},
		{
			"buffer":0,
			"byteLength":6912,
			"byteOffset":4819376,
			"target":34962
		},
		{
			"buffer":0,
			"byteLength":4608,
			"byteOffset":4826288,
			"target":34962
		},
		{
			"buffer":0,
			"byteLength":5256,
			"byteOffset":4830896,
			"target":34963
		}
	],
	"buffers":[
		{
			"byteLength":4836152,
			"uri":"full_plane.bin"
		}
	]
}
