{
	"asset":{
		"generator":"Khronos glTF Blender I/O v5.0.21",
		"version":"2.0"
	},
	"scene":0,
	"scenes":[
		{
			"name":"Scene",
			"nodes":[
				0,
				1,
				2,
				3
			]
		}
	],
	"nodes":[
		{
			"mesh":0,
			"name":"plane_propeller",
			"translation":[
				0.004820299334824085,
				1.549057960510254,
				2.035637855529785
			]
		},
		{
			"mesh":1,
			"name":"plane_body",
			"translation":[
				0.021458856761455536,
				1.3090853691101074,
				-0.7929242849349976
			]
		},
		{
			"mesh":2,
			"name":"plane_dashboard",
			"translation":[
				0,
				1.51020348072052,
				0.44995975494384766
			]
		},
		{
			"mesh":3,
			"name":"plane_glass",
			"translation":[
				0.12754793465137482,
				1.9626171588897705,
				0.10853886604309082
			]
		}
	],
	"materials":[
		{
			"doubleSided":true,
			"name":"Material.003",
			"pbrMetallicRoughness":{
				"baseColorFactor":[
					0.04981130361557007,
					0,
					0.8000074625015259,
					1
				],
				"metallicFactor":0,
				"roughnessFactor":0.5
			}
		},
		{
			"doubleSided":true,
			"name":"Material.001",
			"pbrMetallicRoughness":{
				"baseColorFactor":[
					0.006160847842693329,
					0,
					0.8000074625015259,
					1
				],
				"metallicFactor":0,
				"roughnessFactor":0.5
			}
		},
		{
			"doubleSided":true,
			"name":"Glass"
		}
	],
	"meshes":[
		{
			"name":"plane_propeller",
			"primitives":[
				{
					"attributes":{
						"POSITION":0,
						"NORMAL":1,
						"TEXCOORD_0":2
					},
					"indices":3,
					"material":0
				}
			]
		},
		{
			"name":"plane_body",
			"primitives":[
				{
					"attributes":{
						"POSITION":4,
						"NORMAL":5,
						"TEXCOORD_0":6
					},
					"indices":7
				},
				{
					"attributes":{
						"POSITION":8,
						"NORMAL":9,
						"TEXCOORD_0":10
					},
					"indices":11,
					"material":1
				}
			]
		},
		{
			"name":"plane_dashboard",
			"primitives":[
				{
					"attributes":{
						"POSITION":12,
						"NORMAL":13,
						"TEXCOORD_0":14
					},
					"indices":15
				}
			]
		},
		{
			"name":"plane_glass",
			"primitives":[
				{
					"attributes":{
						"POSITION":16,
						"NORMAL":17,
						"TEXCOORD_0":18
					},
					"indices":19,
					"material":2
				}
			]
		}
	],
	"accessors":[
		{
			"bufferView":0,
			"componentType":5126,
			"count":1523,
			"max":[
				0.9130393862724304,
				1.0275559425354004,
				0.05531216412782669
			],
			"min":[
				-0.9424933791160583,
				-0.5659244060516357,
				-0.05007626861333847
			],
			"type":"VEC3"
		},
		{
			"bufferView":1,
			"componentType":5126,
			"count":1523,
			"type":"VEC3"
		},
		{
			"bufferView":2,
			"componentType":5126,
			"count":1523,
			"type":"VEC2"
		},
		{
			"bufferView":3,
			"componentType":5123,
			"count":2094,
			"type":"SCALAR"
		},
		{
			"bufferView":4,
			"componentType":5126,
			"count":4653,
			"max":[
				0.5851536393165588,
				0.931555986404419,
				1.819985032081604
			],
			"min":[
				-0.6280711889266968,
				-0.7220845222473145,
				0.2659766674041748
			],
			"type":"VEC3"
		},
		{
			"bufferView":5,
			"componentType":5126,
			"count":4653,
			"type":"VEC3"
		},
		{
			"bufferView":6,
			"componentType":5126,
			"count":4653,
			"type":"VEC2"
		},
		{
			"bufferView":7,
			"componentType":5123,
			"count":19482,
			"type":"SCALAR"
		},
		{
			"bufferView":8,
			"componentType":5126,
			"count":11983,
			"max":[
				0.6122385859489441,
				0.9574017524719238,
				2.8391189575195312
			],
			"min":[
				-0.655160129070282,
				-0.7509201169013977,
				0.2659766674041748
			],
			"type":"VEC3"
		},
		{
			"bufferView":9,
			"componentType":5126,
			"count":11983,
			"type":"VEC3"
		},
		{
			"bufferView":10,
			"componentType":5126,
			"count":11983,
			"type":"VEC2"
		},
		{
			"bufferView":11,
			"componentType":5123,
			"count":63096,
			"type":"SCALAR"
		},
		{
			"bufferView":12,
			"componentType":5126,
			"count":1805,
			"max":[
				0.5645652413368225,
				0.28286486864089966,
				0.05835914611816406
			],
			"min":[
				-0.5645652413368225,
				-0.5624023079872131,
				-0.12408232688903809
			],
			"type":"VEC3"
		},
		{
			"bufferView":13,
			"componentType":5126,
			"count":1805,
			"type":"VEC3"
		},
		{
			"bufferView":14,
			"componentType":5126,
			"count":1805,
			"type":"VEC2"
		},
		{
			"bufferView":15,
			"componentType":5123,
			"count":7824,
			"type":"SCALAR"
		},
		{
			"bufferView":16,
			"componentType":5126,
			"count":786,
			"max":[
				0.5022321939468384,
				0.27411508560180664,
				0.3739752769470215
			],
			"min":[
				-0.7573279738426208,
				-0.31670427322387695,
				-0.3080286979675293
			],
			"type":"VEC3"
		},
		{
			"bufferView":17,
			"componentType":5126,
			"count":786,
			"type":"VEC3"
		},
		{
			"bufferView":18,
			"componentType":5126,
			"count":786,
			"type":"VEC2"
		},
		{
			"bufferView":19,
			"componentType":5123,
			"count":4680,
			"type":"SCALAR"
		}
	],
	"bufferViews":[
		{
			"buffer":0,
			"byteLength":18276,
			"byteOffset":0,
			"target":34962
		},
		{
			"buffer":0,
			"byteLength":18276,
			"byteOffset":18276,
			"target":34962
		},
		{
			"buffer":0,
			"byteLength":12184,
			"byteOffset":36552,
			"target":34962
		},
		{
			"buffer":0,
			"byteLength":4188,
			"byteOffset":48736,
			"target":34963
		},
		{
			"buffer":0,
			"byteLength":55836,
			"byteOffset":52924,
			"target":34962
		},
		{
			"buffer":0,
			"byteLength":55836,
			"byteOffset":108760,
			"target":34962
		},
		{
			"buffer":0,
			"byteLength":37224,
			"byteOffset":164596,
			"target":34962
		},
		{
			"buffer":0,
			"byteLength":38964,
			"byteOffset":201820,
			"target":34963
		},
		{
			"buffer":0,
			"byteLength":143796,
			"byteOffset":240784,
			"target":34962
		},
		{
			"buffer":0,
			"byteLength":143796,
			"byteOffset":384580,
			"target":34962
		},
		{
			"buffer":0,
			"byteLength":95864,
			"byteOffset":528376,
			"target":34962
		},
		{
			"buffer":0,
			"byteLength":126192,
			"byteOffset":624240,
			"target":34963
		},
		{
			"buffer":0,
			"byteLength":21660,
			"byteOffset":750432,
			"target":34962
		},
		{
			"buffer":0,
			"byteLength":21660,
			"byteOffset":772092,
			"target":34962
		},
		{
			"buffer":0,
			"byteLength":14440,
			"byteOffset":793752,
			"target":34962
		},
		{
			"buffer":0,
			"byteLength":15648,
			"byteOffset":808192,
			"target":34963
		},
		{
			"buffer":0,
			"byteLength":9432,
			"byteOffset":823840,
			"target":34962
		},
		{
			"buffer":0,
			"byteLength":9432,
			"byteOffset":833272,
			"target":34962
		},
		{
			"buffer":0,
			"byteLength":6288,
			"byteOffset":842704,
			"target":34962
		},
		{
			"buffer":0,
			"byteLength":9360,
			"byteOffset":848992,
			"target":34963
		}
	],
	"buffers":[
		{
			"byteLength":858352,
			"uri":"plane.bin"
		}
	]
}
