{
	"asset":{
		"generator":"Khronos glTF Blender I/O v5.0.21",
		"version":"2.0"
	},
	"scene":0,
	"scenes":[
		{
			"name":"Scene",
			"nodes":[
				0
			]
		}
	],
	"nodes":[
		{
			"mesh":0,
			"name":"plane_propeller"
		}
	],
	"materials":[
		{
			"doubleSided":true,
			"name":"Material.003",
			"pbrMetallicRoughness":{
				"baseColorFactor":[
					0.04981130361557007,
					0,
					0.8000074625015259,
					1
				],
				"metallicFactor":0,
				"roughnessFactor":0.5
			}
		}
	],
	"meshes":[
		{
			"name":"plane_propeller",
			"primitives":[
				{
					"attributes":{
						"POSITION":0,
						"NORMAL":1,
						"TEXCOORD_0":2
					},
					"indices":3,
					"material":0
				}
			]
		}
	],
	"accessors":[
		{
			"bufferView":0,
			"componentType":5126,
			"count":1523,
			"max":[
				0.9130394458770752,
				1.0275559425354004,
				0.05531209334731102
			],
			"min":[
				-0.9424933195114136,
				-0.5659244060516357,
				-0.05007633939385414
			],
			"type":"VEC3"
		},
		{
			"bufferView":1,
			"componentType":5126,
			"count":1523,
			"type":"VEC3"
		},
		{
			"bufferView":2,
			"componentType":5126,
			"count":1523,
			"type":"VEC2"
		},
		{
			"bufferView":3,
			"componentType":5123,
			"count":2094,
			"type":"SCALAR"
		}
	],
	"bufferViews":[
		{
			"buffer":0,
			"byteLength":18276,
			"byteOffset":0,
			"target":34962
		},
		{
			"buffer":0,
			"byteLength":18276,
			"byteOffset":18276,
			"target":34962
		},
		{
			"buffer":0,
			"byteLength":12184,
			"byteOffset":36552,
			"target":34962
		},
		{
			"buffer":0,
			"byteLength":4188,
			"byteOffset":48736,
			"target":34963
		}
	],
	"buffers":[
		{
			"byteLength":52924,
			"uri":"plane_propeller.bin"
		}
	]
}
