{
	"asset":{
		"generator":"Khronos glTF Blender I/O v5.0.21",
		"version":"2.0"
	},
	"scene":0,
	"scenes":[
		{
			"name":"Scene",
			"nodes":[
				0
			]
		}
	],
	"nodes":[
		{
			"mesh":0,
			"name":"needle_02",
			"rotation":[
				0.5,
				-0.5,
				0.5,
				0.5
			],
			"scale":[
				41.437034606933594,
				41.437034606933594,
				41.437034606933594
			],
			"translation":[
				0.26504042744636536,
				0.03277650848031044,
				-0.009775971993803978
			]
		}
	],
	"meshes":[
		{
			"name":"needle_02",
			"primitives":[
				{
					"attributes":{
						"POSITION":0,
						"NORMAL":1,
						"TEXCOORD_0":2
					},
					"indices":3
				},
				{
					"attributes":{
						"POSITION":4,
						"NORMAL":5,
						"TEXCOORD_0":6
					},
					"indices":7
				}
			]
		}
	],
	"accessors":[
		{
			"bufferView":0,
			"componentType":5126,
			"count":38,
			"max":[
				0.000998571515083313,
				0.025928139686584473,
				0.0011705756187438965
			],
			"min":[
				-0.0006899833679199219,
				0.00961148738861084,
				-0.000532686710357666
			],
			"type":"VEC3"
		},
		{
			"bufferView":1,
			"componentType":5126,
			"count":38,
			"type":"VEC3"
		},
		{
			"bufferView":2,
			"componentType":5126,
			"count":38,
			"type":"VEC2"
		},
		{
			"bufferView":3,
			"componentType":5123,
			"count":84,
			"type":"SCALAR"
		},
		{
			"bufferView":4,
			"componentType":5126,
			"count":138,
			"max":[
				0.003596082329750061,
				0.009863495826721191,
				0.0011930465698242188
			],
			"min":[
				-0.0034446418285369873,
				-2.09808349609375e-05,
				-0.0016318857669830322
			],
			"type":"VEC3"
		},
		{
			"bufferView":5,
			"componentType":5126,
			"count":138,
			"type":"VEC3"
		},
		{
			"bufferView":6,
			"componentType":5126,
			"count":138,
			"type":"VEC2"
		},
		{
			"bufferView":7,
			"componentType":5123,
			"count":426,
			"type":"SCALAR"
		}
	],
	"bufferViews":[
		{
			"buffer":0,
			"byteLength":456,
			"byteOffset":0,
			"target":34962
		},
		{
			"buffer":0,
			"byteLength":456,
			"byteOffset":456,
			"target":34962
		},
		{
			"buffer":0,
			"byteLength":304,
			"byteOffset":912,
			"target":34962
		},
		{
			"buffer":0,
			"byteLength":168,
			"byteOffset":1216,
			"target":34963
		},
		{
			"buffer":0,
			"byteLength":1656,
			"byteOffset":1384,
			"target":34962
		},
		{
			"buffer":0,
			"byteLength":1656,
			"byteOffset":3040,
			"target":34962
		},
		{
			"buffer":0,
			"byteLength":1104,
			"byteOffset":4696,
			"target":34962
		},
		{
			"buffer":0,
			"byteLength":852,
			"byteOffset":5800,
			"target":34963
		}
	],
	"buffers":[
		{
			"byteLength":6652,
			"uri":"needle_02.bin"
		}
	]
}
