{
	"asset":{
		"generator":"Khronos glTF Blender I/O v5.0.21",
		"version":"2.0"
	},
	"scene":0,
	"scenes":[
		{
			"name":"Scene",
			"nodes":[
				0
			]
		}
	],
	"nodes":[
		{
			"mesh":0,
			"name":"needle_03",
			"scale":[
				0.12988467514514923,
				0.12988467514514923,
				0.12988467514514923
			],
			"translation":[
				-0.2335936278104782,
				-0.0005165187176316977,
				0.00010780252341646701
			]
		}
	],
	"meshes":[
		{
			"name":"needle_03",
			"primitives":[
				{
					"attributes":{
						"POSITION":0,
						"NORMAL":1,
						"TEXCOORD_0":2
					},
					"indices":3
				},
				{
					"attributes":{
						"POSITION":4,
						"NORMAL":5,
						"TEXCOORD_0":6
					},
					"indices":7
				}
			]
		}
	],
	"accessors":[
		{
			"bufferView":0,
			"componentType":5126,
			"count":1272,
			"max":[
				2.73616099357605,
				0.228260800242424,
				0.9991699457168579
			],
			"min":[
				-7.8621697425842285,
				-0.22030730545520782,
				-1.0008299350738525
			],
			"type":"VEC3"
		},
		{
			"bufferView":1,
			"componentType":5126,
			"count":1272,
			"type":"VEC3"
		},
		{
			"bufferView":2,
			"componentType":5126,
			"count":1272,
			"type":"VEC2"
		},
		{
			"bufferView":3,
			"componentType":5123,
			"count":3756,
			"type":"SCALAR"
		},
		{
			"bufferView":4,
			"componentType":5126,
			"count":46,
			"max":[
				-5.130709171295166,
				0.05962324142456055,
				0.19489623606204987
			],
			"min":[
				-12.913853645324707,
				-0.13343940675258636,
				-0.19592031836509705
			],
			"type":"VEC3"
		},
		{
			"bufferView":5,
			"componentType":5126,
			"count":46,
			"type":"VEC3"
		},
		{
			"bufferView":6,
			"componentType":5126,
			"count":46,
			"type":"VEC2"
		},
		{
			"bufferView":7,
			"componentType":5123,
			"count":114,
			"type":"SCALAR"
		}
	],
	"bufferViews":[
		{
			"buffer":0,
			"byteLength":15264,
			"byteOffset":0,
			"target":34962
		},
		{
			"buffer":0,
			"byteLength":15264,
			"byteOffset":15264,
			"target":34962
		},
		{
			"buffer":0,
			"byteLength":10176,
			"byteOffset":30528,
			"target":34962
		},
		{
			"buffer":0,
			"byteLength":7512,
			"byteOffset":40704,
			"target":34963
		},
		{
			"buffer":0,
			"byteLength":552,
			"byteOffset":48216,
			"target":34962
		},
		{
			"buffer":0,
			"byteLength":552,
			"byteOffset":48768,
			"target":34962
		},
		{
			"buffer":0,
			"byteLength":368,
			"byteOffset":49320,
			"target":34962
		},
		{
			"buffer":0,
			"byteLength":228,
			"byteOffset":49688,
			"target":34963
		}
	],
	"buffers":[
		{
			"byteLength":49916,
			"uri":"needle_03.bin"
		}
	]
}
