{
	"asset":{
		"generator":"Khronos glTF Blender I/O v5.0.21",
		"version":"2.0"
	},
	"scene":0,
	"scenes":[
		{
			"name":"Scene",
			"nodes":[
				0
			]
		}
	],
	"nodes":[
		{
			"mesh":0,
			"name":"needle_05"
		}
	],
	"meshes":[
		{
			"name":"needle_05",
			"primitives":[
				{
					"attributes":{
						"POSITION":0,
						"NORMAL":1,
						"TEXCOORD_0":2
					},
					"indices":3
				},
				{
					"attributes":{
						"POSITION":4,
						"NORMAL":5,
						"TEXCOORD_0":6
					},
					"indices":7
				}
			]
		}
	],
	"accessors":[
		{
			"bufferView":0,
			"componentType":5126,
			"count":147,
			"max":[
				0.07917208969593048,
				-0.0003484214539639652,
				0.01225248258560896
			],
			"min":[
				-0.003379266709089279,
				-0.0017512585036456585,
				-0.012110646814107895
			],
			"type":"VEC3"
		},
		{
			"bufferView":1,
			"componentType":5126,
			"count":147,
			"type":"VEC3"
		},
		{
			"bufferView":2,
			"componentType":5126,
			"count":147,
			"type":"VEC2"
		},
		{
			"bufferView":3,
			"componentType":5123,
			"count":228,
			"type":"SCALAR"
		},
		{
			"bufferView":4,
			"componentType":5126,
			"count":430,
			"max":[
				0.010433756746351719,
				0.0017292791744694114,
				0.01056857779622078
			],
			"min":[
				-0.010451782494783401,
				-0.0007073484594002366,
				-0.010436253622174263
			],
			"type":"VEC3"
		},
		{
			"bufferView":5,
			"componentType":5126,
			"count":430,
			"type":"VEC3"
		},
		{
			"bufferView":6,
			"componentType":5126,
			"count":430,
			"type":"VEC2"
		},
		{
			"bufferView":7,
			"componentType":5123,
			"count":1482,
			"type":"SCALAR"
		}
	],
	"bufferViews":[
		{
			"buffer":0,
			"byteLength":1764,
			"byteOffset":0,
			"target":34962
		},
		{
			"buffer":0,
			"byteLength":1764,
			"byteOffset":1764,
			"target":34962
		},
		{
			"buffer":0,
			"byteLength":1176,
			"byteOffset":3528,
			"target":34962
		},
		{
			"buffer":0,
			"byteLength":456,
			"byteOffset":4704,
			"target":34963
		},
		{
			"buffer":0,
			"byteLength":5160,
			"byteOffset":5160,
			"target":34962
		},
		{
			"buffer":0,
			"byteLength":5160,
			"byteOffset":10320,
			"target":34962
		},
		{
			"buffer":0,
			"byteLength":3440,
			"byteOffset":15480,
			"target":34962
		},
		{
			"buffer":0,
			"byteLength":2964,
			"byteOffset":18920,
			"target":34963
		}
	],
	"buffers":[
		{
			"byteLength":21884,
			"uri":"needle_05.bin"
		}
	]
}
