{
	"asset":{
		"generator":"Khronos glTF Blender I/O v5.0.21",
		"version":"2.0"
	},
	"scene":0,
	"scenes":[
		{
			"name":"Scene",
			"nodes":[
				0
			]
		}
	],
	"nodes":[
		{
			"mesh":0,
			"name":"needle_01"
		}
	],
	"meshes":[
		{
			"name":"needle_01",
			"primitives":[
				{
					"attributes":{
						"POSITION":0,
						"NORMAL":1,
						"TEXCOORD_0":2
					},
					"indices":3
				},
				{
					"attributes":{
						"POSITION":4,
						"NORMAL":5,
						"TEXCOORD_0":6
					},
					"indices":7
				}
			]
		}
	],
	"accessors":[
		{
			"bufferView":0,
			"componentType":5126,
			"count":126,
			"max":[
				0.23333540558815002,
				0.00704037444666028,
				0.08432258665561676
			],
			"min":[
				-0.7903009653091431,
				-0.007674387656152248,
				-0.07865366339683533
			],
			"type":"VEC3"
		},
		{
			"bufferView":1,
			"componentType":5126,
			"count":126,
			"type":"VEC3"
		},
		{
			"bufferView":2,
			"componentType":5126,
			"count":126,
			"type":"VEC2"
		},
		{
			"bufferView":3,
			"componentType":5123,
			"count":324,
			"type":"SCALAR"
		},
		{
			"bufferView":4,
			"componentType":5126,
			"count":88,
			"max":[
				0.06921501457691193,
				0.027018891647458076,
				0.06681854277849197
			],
			"min":[
				-0.05791284143924713,
				-0.02544652670621872,
				-0.05979825183749199
			],
			"type":"VEC3"
		},
		{
			"bufferView":5,
			"componentType":5126,
			"count":88,
			"type":"VEC3"
		},
		{
			"bufferView":6,
			"componentType":5126,
			"count":88,
			"type":"VEC2"
		},
		{
			"bufferView":7,
			"componentType":5123,
			"count":228,
			"type":"SCALAR"
		}
	],
	"bufferViews":[
		{
			"buffer":0,
			"byteLength":1512,
			"byteOffset":0,
			"target":34962
		},
		{
			"buffer":0,
			"byteLength":1512,
			"byteOffset":1512,
			"target":34962
		},
		{
			"buffer":0,
			"byteLength":1008,
			"byteOffset":3024,
			"target":34962
		},
		{
			"buffer":0,
			"byteLength":648,
			"byteOffset":4032,
			"target":34963
		},
		{
			"buffer":0,
			"byteLength":1056,
			"byteOffset":4680,
			"target":34962
		},
		{
			"buffer":0,
			"byteLength":1056,
			"byteOffset":5736,
			"target":34962
		},
		{
			"buffer":0,
			"byteLength":704,
			"byteOffset":6792,
			"target":34962
		},
		{
			"buffer":0,
			"byteLength":456,
			"byteOffset":7496,
			"target":34963
		}
	],
	"buffers":[
		{
			"byteLength":7952,
			"uri":"needle_01.bin"
		}
	]
}
