{
	"asset":{
		"generator":"Khronos glTF Blender I/O v5.0.21",
		"version":"2.0"
	},
	"scene":0,
	"scenes":[
		{
			"name":"Scene",
			"nodes":[
				0
			]
		}
	],
	"nodes":[
		{
			"mesh":0,
			"name":"needle_04"
		}
	],
	"meshes":[
		{
			"name":"needle_04",
			"primitives":[
				{
					"attributes":{
						"POSITION":0,
						"NORMAL":1,
						"TEXCOORD_0":2
					},
					"indices":3
				},
				{
					"attributes":{
						"POSITION":4,
						"NORMAL":5,
						"TEXCOORD_0":6
					},
					"indices":7
				}
			]
		}
	],
	"accessors":[
		{
			"bufferView":0,
			"componentType":5126,
			"count":272,
			"max":[
				0.005932706408202648,
				0.000889181683305651,
				-0.008282288908958435
			],
			"min":[
				-0.0063907974399626255,
				-0.0008761081844568253,
				-0.07069790363311768
			],
			"type":"VEC3"
		},
		{
			"bufferView":1,
			"componentType":5126,
			"count":272,
			"type":"VEC3"
		},
		{
			"bufferView":2,
			"componentType":5126,
			"count":272,
			"type":"VEC2"
		},
		{
			"bufferView":3,
			"componentType":5123,
			"count":420,
			"type":"SCALAR"
		},
		{
			"bufferView":4,
			"componentType":5126,
			"count":459,
			"max":[
				0.010255439206957817,
				0.0036033825017511845,
				0.010241398587822914
			],
			"min":[
				-0.010259995236992836,
				-0.003191480180248618,
				-0.010227791965007782
			],
			"type":"VEC3"
		},
		{
			"bufferView":5,
			"componentType":5126,
			"count":459,
			"type":"VEC3"
		},
		{
			"bufferView":6,
			"componentType":5126,
			"count":459,
			"type":"VEC2"
		},
		{
			"bufferView":7,
			"componentType":5123,
			"count":1188,
			"type":"SCALAR"
		}
	],
	"bufferViews":[
		{
			"buffer":0,
			"byteLength":3264,
			"byteOffset":0,
			"target":34962
		},
		{
			"buffer":0,
			"byteLength":3264,
			"byteOffset":3264,
			"target":34962
		},
		{
			"buffer":0,
			"byteLength":2176,
			"byteOffset":6528,
			"target":34962
		},
		{
			"buffer":0,
			"byteLength":840,
			"byteOffset":8704,
			"target":34963
		},
		{
			"buffer":0,
			"byteLength":5508,
			"byteOffset":9544,
			"target":34962
		},
		{
			"buffer":0,
			"byteLength":5508,
			"byteOffset":15052,
			"target":34962
		},
		{
			"buffer":0,
			"byteLength":3672,
			"byteOffset":20560,
			"target":34962
		},
		{
			"buffer":0,
			"byteLength":2376,
			"byteOffset":24232,
			"target":34963
		}
	],
	"buffers":[
		{
			"byteLength":26608,
			"uri":"needle_04.bin"
		}
	]
}
